<svg width="240" height="240" viewBox="0 0 240 240" fill="none" xmlns="http://www.w3.org/2000/svg">
<path fill-rule="evenodd" clip-rule="evenodd" d="M115.723 136.998C116.094 136.998 116.489 137.055 116.906 137.164C117.322 137.272 117.71 137.481 118.06 137.792C118.41 138.104 118.706 138.529 118.938 139.071C119.169 139.616 119.286 140.319 119.286 141.188V141.547H114.082C114.089 141.687 114.113 141.864 114.156 142.074C114.191 142.283 114.271 142.49 114.389 142.69C114.507 142.89 114.682 143.061 114.916 143.194C115.148 143.332 115.465 143.403 115.864 143.403C116.141 143.403 116.406 143.332 116.656 143.194C116.908 143.061 117.071 142.852 117.148 142.576H119.202C119.066 143.031 118.88 143.412 118.642 143.721C118.398 144.028 118.122 144.277 117.818 144.468C117.512 144.657 117.193 144.792 116.855 144.873C116.52 144.953 116.189 144.994 115.864 144.994C115.332 144.994 114.834 144.923 114.373 144.787C113.913 144.646 113.513 144.418 113.179 144.096C112.839 143.771 112.574 143.343 112.377 142.808C112.181 142.276 112.084 141.621 112.084 140.839C112.084 140.688 112.096 140.49 112.118 140.241C112.145 139.99 112.2 139.725 112.287 139.441C112.371 139.154 112.494 138.867 112.654 138.573C112.816 138.284 113.033 138.023 113.306 137.792C113.576 137.56 113.908 137.37 114.299 137.218C114.699 137.072 115.167 136.998 115.723 136.998ZM115.694 138.64C115.22 138.64 114.859 138.783 114.605 139.065C114.355 139.345 114.2 139.74 114.143 140.244H117.237C117.207 139.941 117.142 139.682 117.036 139.479C116.932 139.273 116.808 139.108 116.666 138.982C116.524 138.86 116.367 138.772 116.194 138.72C116.025 138.666 115.857 138.64 115.694 138.64Z" fill="black"/>
<path fill-rule="evenodd" clip-rule="evenodd" d="M134.062 136.997C134.573 136.997 135.065 137.079 135.531 137.242C135.995 137.403 136.408 137.648 136.764 137.977C137.12 138.302 137.405 138.719 137.62 139.22C137.833 139.717 137.938 140.31 137.938 140.996C137.937 141.682 137.832 142.275 137.62 142.781C137.405 143.285 137.12 143.703 136.764 144.029C136.408 144.358 135.995 144.603 135.531 144.757C135.065 144.917 134.577 144.994 134.062 144.994C133.546 144.994 133.06 144.916 132.592 144.757C132.127 144.603 131.716 144.358 131.361 144.029C131.002 143.703 130.719 143.285 130.505 142.781C130.294 142.275 130.186 141.682 130.186 140.996C130.186 140.31 130.294 139.717 130.505 139.22C130.719 138.719 131.002 138.302 131.361 137.977C131.716 137.647 132.127 137.403 132.592 137.242C133.06 137.079 133.551 136.997 134.062 136.997ZM134.062 138.678C133.681 138.678 133.359 138.755 133.119 138.91C132.882 139.061 132.701 139.251 132.569 139.479C132.444 139.71 132.352 139.96 132.306 140.229C132.259 140.505 132.235 140.747 132.235 140.996C132.235 141.245 132.259 141.504 132.306 141.774C132.352 142.046 132.444 142.299 132.569 142.527C132.701 142.755 132.882 142.944 133.119 143.092C133.359 143.24 133.673 143.313 134.062 143.313C134.45 143.313 134.753 143.24 134.995 143.092C135.237 142.944 135.422 142.755 135.55 142.527C135.683 142.299 135.772 142.046 135.817 141.774C135.866 141.504 135.889 141.245 135.889 140.996C135.889 140.76 135.866 140.505 135.817 140.229C135.771 139.96 135.683 139.71 135.55 139.479C135.422 139.25 135.237 139.061 134.995 138.91C134.753 138.755 134.442 138.678 134.062 138.678Z" fill="black"/>
<path d="M122.861 137.2H124.103V138.628H122.861V142.751C122.861 142.865 122.867 142.96 122.876 143.035C122.885 143.112 122.916 143.173 122.97 143.223C123.021 143.268 123.103 143.304 123.217 143.328C123.331 143.351 123.491 143.363 123.688 143.363C123.756 143.363 123.822 143.363 123.885 143.358C123.954 143.353 124.024 143.347 124.103 143.339V144.842C123.937 144.854 123.784 144.864 123.63 144.87C123.482 144.874 123.322 144.881 123.159 144.881H122.904C122.476 144.881 122.13 144.839 121.861 144.757C121.594 144.678 121.391 144.567 121.241 144.424C121.091 144.277 120.992 144.11 120.938 143.912C120.888 143.706 120.861 143.484 120.861 143.236V138.627H119.837V137.2H120.861V135.151H122.861V137.2Z" fill="black"/>
<path d="M108.226 136.997C108.595 136.997 108.946 137.052 109.267 137.163C109.589 137.271 109.867 137.433 110.101 137.647C110.331 137.864 110.519 138.125 110.654 138.44C110.792 138.754 110.862 139.122 110.862 139.54V144.789H108.863V140.179C108.863 139.618 108.753 139.226 108.544 139.005C108.33 138.788 108.076 138.678 107.78 138.678C107.279 138.678 106.927 138.828 106.729 139.122C106.532 139.417 106.43 139.789 106.43 140.234V144.789H104.432V140.223C104.432 140.06 104.425 139.888 104.41 139.706C104.395 139.525 104.355 139.358 104.281 139.204C104.209 139.056 104.093 138.928 103.928 138.828C103.76 138.727 103.529 138.679 103.235 138.679C102.997 138.679 102.803 138.719 102.646 138.793C102.489 138.869 102.363 138.973 102.27 139.108C102.175 139.241 102.106 139.398 102.062 139.577C102.018 139.76 102 139.955 102 140.162V144.79H100V137.201H101.914V138.311H101.938C102.004 138.185 102.091 138.045 102.196 137.895C102.303 137.745 102.438 137.599 102.608 137.469C102.78 137.337 102.987 137.223 103.229 137.132C103.473 137.044 103.761 136.997 104.093 136.997C104.367 136.997 104.609 137.027 104.814 137.077C105.017 137.131 105.203 137.201 105.366 137.305C105.534 137.405 105.685 137.532 105.812 137.682C105.94 137.832 106.072 138.01 106.203 138.209C106.269 138.113 106.354 137.996 106.459 137.857C106.563 137.722 106.696 137.59 106.859 137.463C107.019 137.336 107.208 137.223 107.433 137.132C107.657 137.044 107.923 136.997 108.226 136.997Z" fill="black"/>
<path d="M129.57 137.018C129.635 137.023 129.698 137.028 129.764 137.039V139.062C129.679 139.046 129.584 139.032 129.479 139.032H129.192C128.803 139.032 128.494 139.091 128.254 139.2C128.018 139.307 127.831 139.449 127.696 139.627C127.563 139.804 127.473 139.997 127.427 140.212C127.379 140.422 127.354 140.637 127.354 140.846V144.79H125.355V137.216H127.267V138.522H127.292C127.4 138.334 127.512 138.145 127.623 137.967C127.738 137.786 127.877 137.623 128.038 137.48C128.201 137.339 128.387 137.225 128.603 137.14C128.815 137.055 129.075 137.012 129.381 137.012C129.446 137.012 129.51 137.015 129.57 137.018Z" fill="black"/>
<path d="M138.186 136.176H137.75V137.382H137.521V136.176H137.085V135.989H138.186V136.176Z" fill="black"/>
<path d="M139.24 137.047L139.649 135.989H140V137.382H139.771V136.22H139.764L139.308 137.382H139.162L138.706 136.22H138.699V137.382H138.47V135.989H138.824L139.24 137.047Z" fill="black"/>
<path fill-rule="evenodd" clip-rule="evenodd" d="M134.819 96C135.646 96.0001 136.439 96.3283 137.023 96.9131C137.608 97.4978 137.938 98.2914 137.938 99.1182V130.819C137.937 131.646 137.608 132.439 137.023 133.024C136.439 133.609 135.646 133.937 134.819 133.938H103.118C102.291 133.938 101.498 133.609 100.913 133.024C100.329 132.44 100 131.646 100 130.819V99.1182C100 98.2914 100.329 97.4982 100.913 96.9131C101.498 96.3287 102.291 96 103.118 96H134.819ZM103.118 99.2852V130.719H109.355V109.076L115.591 130.719H122.347L128.583 109.076V130.719H134.819V99.2852H125.465L118.969 121.443L112.473 99.2852H103.118Z" fill="black"/>
</svg>
