<svg width="240" height="240" viewBox="0 0 240 240" fill="none" xmlns="http://www.w3.org/2000/svg">
<path d="M95.8275 115.472C95.9611 115.568 96.1939 115.688 96.4322 115.841C96.6366 115.953 96.8151 116.104 96.9619 116.281C96.9725 116.292 96.9928 116.315 96.9928 116.315L96.9956 116.322C97.3834 116.814 97.5358 117.493 97.3341 118.137L93.2147 130.76H93.2119C92.9761 131.337 92.4889 131.753 91.9256 131.914C91.8914 131.922 91.153 132.107 90.3253 131.909C90.3431 131.903 90.9817 131.674 91.4906 130.157L94.0191 122.31L94.6059 120.498L95.3925 118.064L95.4 118.041C95.4105 118.004 95.4445 117.892 95.5256 117.651L95.7009 117.105C96.1202 115.693 95.8196 115.467 95.8275 115.472Z" fill="black"/>
<path d="M91.6453 112.465C91.8943 112.644 92.4763 112.896 92.8116 113.309C93.2044 113.798 93.361 114.476 93.1594 115.126L92.9766 115.68L92.8059 116.2L88.0162 130.755C88.0138 130.757 88.0087 130.76 88.0087 130.76C87.6996 131.568 86.9921 132.01 86.0541 131.997C85.9964 131.997 85.9394 131.996 85.8834 131.993L85.7081 131.98C85.5668 131.967 85.4386 131.948 85.3312 131.927C85.3447 131.92 85.7344 131.716 86.19 130.497L91.2131 115.048C91.2144 115.043 91.2475 114.921 91.3809 114.534C91.4228 114.411 91.4594 114.297 91.4934 114.188C91.8916 112.896 91.7108 112.544 91.6584 112.477C91.6514 112.468 91.6453 112.465 91.6453 112.465Z" fill="black"/>
<path d="M93.7359 113.995C93.8669 114.089 94.0924 114.206 94.3256 114.355C94.53 114.461 94.7086 114.607 94.8553 114.778C94.8709 114.794 94.8817 114.812 94.8947 114.827C94.8972 114.832 94.905 114.84 94.905 114.84C95.2928 115.329 95.4499 116.006 95.2481 116.65L94.8994 117.705L93.5081 121.938C93.5081 121.938 90.6358 130.696 90.6103 130.757C90.3771 131.329 89.8925 131.743 89.3344 131.899C89.3266 131.901 89.0095 132.002 88.5337 131.992L88.3078 131.982C88.1455 131.967 87.9697 131.938 87.7837 131.886C87.7989 131.881 88.3617 131.688 88.845 130.331L93.3094 116.564C93.3199 116.523 93.3591 116.4 93.4481 116.135L93.4791 116.036L93.5944 115.677C94.0306 114.243 93.7372 113.997 93.7359 113.995Z" fill="black"/>
<path d="M78.3009 112.303C78.3009 112.303 78.7707 112.155 79.6903 112.812C79.9181 112.976 79.9837 113.026 79.9837 113.026L84.39 116.229L80.0859 119.318L81.9431 124.99H87.3037L85.5066 130.528L85.3444 130.928C84.9609 131.788 84.658 131.94 84.6525 131.943H76.9491L72 116.83L78.3009 112.303Z" fill="black"/>
<path d="M138.133 129.081C138.133 129.273 138.173 129.439 138.251 129.58C138.33 129.72 138.44 129.827 138.581 129.905C138.723 129.983 138.896 130.019 139.095 130.019C139.294 130.019 139.459 129.98 139.606 129.905C139.753 129.827 139.863 129.72 139.942 129.58C140.02 129.439 140.06 129.273 140.06 129.081V125.945H141.233V129.081C141.233 129.494 141.147 129.853 140.974 130.154C140.801 130.456 140.554 130.687 140.232 130.851C139.91 131.015 139.527 131.098 139.085 131.098H139.077C138.64 131.098 138.262 131.015 137.945 130.851C137.628 130.687 137.385 130.456 137.214 130.154C137.044 129.853 136.959 129.497 136.959 129.081V125.945H138.133V129.081Z" fill="black"/>
<path d="M103.52 125.859C103.889 125.859 104.227 125.924 104.536 126.052C104.845 126.179 105.113 126.358 105.338 126.59C105.564 126.821 105.737 127.089 105.86 127.393L104.759 127.763C104.686 127.594 104.589 127.448 104.463 127.32C104.34 127.195 104.198 127.099 104.041 127.031C103.884 126.964 103.708 126.93 103.52 126.93C103.253 126.93 103.014 126.995 102.807 127.125C102.598 127.255 102.435 127.437 102.32 127.671C102.204 127.905 102.144 128.173 102.144 128.477C102.144 128.781 102.205 129.049 102.322 129.283C102.44 129.517 102.605 129.699 102.817 129.832C103.03 129.964 103.271 130.03 103.543 130.03C103.742 130.03 103.92 129.993 104.075 129.92C104.229 129.847 104.366 129.746 104.479 129.616C104.594 129.486 104.691 129.338 104.775 129.169L105.875 129.538C105.759 129.848 105.587 130.118 105.359 130.352C105.131 130.586 104.861 130.768 104.549 130.898C104.237 131.028 103.897 131.093 103.522 131.093L103.52 131.09C103.014 131.09 102.569 130.979 102.184 130.755C101.799 130.532 101.494 130.222 101.274 129.829C101.054 129.436 100.942 128.984 100.942 128.474C100.942 127.965 101.052 127.513 101.274 127.12C101.494 126.728 101.799 126.418 102.184 126.194C102.569 125.971 103.014 125.859 103.52 125.859Z" fill="black"/>
<path fill-rule="evenodd" clip-rule="evenodd" d="M155.416 125.867C155.935 125.867 156.396 125.979 156.797 126.203C157.198 126.426 157.512 126.736 157.74 127.128C157.968 127.521 158.083 127.973 158.083 128.483C158.083 128.992 157.97 129.436 157.745 129.829C157.519 130.221 157.208 130.532 156.81 130.755C156.412 130.979 155.953 131.09 155.434 131.09H155.429C154.905 131.09 154.441 130.979 154.038 130.755C153.634 130.532 153.32 130.222 153.092 129.829C152.864 129.436 152.749 128.987 152.749 128.483C152.749 127.978 152.864 127.521 153.092 127.128C153.32 126.735 153.634 126.426 154.035 126.203C154.436 125.979 154.897 125.867 155.416 125.867ZM155.419 126.93C155.133 126.93 154.879 126.995 154.661 127.128C154.444 127.261 154.27 127.442 154.145 127.676C154.019 127.91 153.956 128.179 153.956 128.483C153.956 128.787 154.019 129.047 154.145 129.28C154.27 129.514 154.446 129.697 154.669 129.827C154.891 129.957 155.147 130.021 155.431 130.021C155.715 130.021 155.969 129.957 156.186 129.827C156.403 129.697 156.573 129.514 156.697 129.28C156.817 129.047 156.88 128.782 156.88 128.483C156.88 128.184 156.818 127.91 156.692 127.676C156.566 127.442 156.393 127.261 156.175 127.128C155.958 126.995 155.704 126.93 155.419 126.93Z" fill="black"/>
<path d="M107.657 131.005L107.654 131.002H107.657V131.005Z" fill="black"/>
<path fill-rule="evenodd" clip-rule="evenodd" d="M109.658 125.945C110.028 125.945 110.355 126.015 110.641 126.158C110.927 126.301 111.152 126.499 111.314 126.751C111.477 127.003 111.558 127.294 111.558 127.622C111.558 127.95 111.477 128.241 111.312 128.496C111.147 128.751 110.919 128.951 110.631 129.091C110.623 129.095 110.615 129.097 110.607 129.1L111.762 131.005H110.423L109.45 129.304H108.828V131.002H107.657V125.945H109.658ZM108.828 128.235H109.622C109.758 128.235 109.878 128.209 109.986 128.155C110.093 128.103 110.178 128.028 110.238 127.934C110.298 127.841 110.33 127.736 110.33 127.619C110.33 127.44 110.264 127.295 110.13 127.178C109.996 127.061 109.821 127.003 109.601 127.003H108.828V128.235Z" fill="black"/>
<path fill-rule="evenodd" clip-rule="evenodd" d="M120.752 125.945C121.292 125.945 121.769 126.054 122.182 126.27C122.596 126.486 122.922 126.785 123.155 127.162C123.388 127.541 123.503 127.978 123.503 128.474C123.503 128.971 123.388 129.403 123.155 129.782C122.922 130.162 122.596 130.461 122.182 130.679C121.769 130.895 121.289 131.005 120.752 131.005H119.083V125.945H120.752ZM120.257 129.905H120.752C120.975 129.905 121.182 129.871 121.371 129.801C121.559 129.731 121.724 129.632 121.866 129.505C122.007 129.377 122.114 129.223 122.193 129.049C122.271 128.872 122.311 128.682 122.311 128.474C122.311 128.266 122.271 128.077 122.193 127.9C122.114 127.724 122.007 127.572 121.866 127.445C121.724 127.318 121.559 127.219 121.371 127.149C121.182 127.078 120.975 127.045 120.752 127.045H120.257V129.905Z" fill="black"/>
<path d="M126.501 131.005H125.327V125.945H126.501V131.005Z" fill="black"/>
<path d="M132.267 127.014H130.781V131.005H129.616V127.014H128.13V125.945H132.267V127.014Z" fill="black"/>
<path d="M146.74 129.031V125.945H147.914V131.005H146.74L144.445 127.832V131.005H143.274V125.945H144.505L146.74 129.031Z" fill="black"/>
<path d="M151.082 131.005H149.908V125.945H151.082V131.005Z" fill="black"/>
<path d="M163.187 129.031V125.945H164.361V131.005H163.187L160.892 127.832V131.005H159.721V125.945H160.952L163.187 129.031Z" fill="black"/>
<path d="M116.942 127.014H114.794V127.939H116.594V128.971H114.794V129.933H116.979V131.002H113.62V125.945H116.942V127.014Z" fill="black"/>
<path d="M119.523 114.128H114.81V116.158H118.758V118.426H114.81V120.535H119.604V122.882H112.234V111.78H119.523V114.128Z" fill="black"/>
<path d="M130.04 118.554V111.78H132.613V122.882H130.04L125.007 115.919V122.882H122.432V111.78H125.133L130.04 118.554Z" fill="black"/>
<path d="M143.19 114.128H138.349V116.268H142.266V118.6H138.349V122.882H135.775V111.78H143.19V114.128Z" fill="black"/>
<path d="M152.942 114.128H148.226V116.158H152.175V118.426H148.226V120.535H153.021V122.882H145.653V111.78H152.942V114.128Z" fill="black"/>
<path fill-rule="evenodd" clip-rule="evenodd" d="M159.527 111.78C160.708 111.78 161.757 112.02 162.668 112.495C163.58 112.971 164.29 113.624 164.801 114.453C165.312 115.282 165.568 116.242 165.568 117.331C165.568 118.42 165.312 119.367 164.801 120.202C164.29 121.036 163.577 121.691 162.668 122.167C161.759 122.642 160.711 122.882 159.527 122.882H155.866V111.78H159.527ZM158.439 120.472H159.527C160.017 120.472 160.47 120.396 160.883 120.243C161.3 120.09 161.662 119.874 161.971 119.593C162.28 119.312 162.519 118.98 162.692 118.595C162.862 118.21 162.949 117.789 162.949 117.334C162.949 116.879 162.862 116.46 162.692 116.073C162.522 115.688 162.28 115.355 161.971 115.075C161.662 114.794 161.3 114.578 160.883 114.425C160.467 114.272 160.017 114.196 159.527 114.196H158.439V120.472Z" fill="black"/>
<path fill-rule="evenodd" clip-rule="evenodd" d="M105.791 111.78C106.601 111.78 107.319 111.942 107.95 112.264C108.579 112.586 109.072 113.031 109.428 113.595C109.784 114.162 109.962 114.82 109.962 115.569C109.962 116.317 109.79 116.952 109.444 117.526C109.098 118.103 108.616 118.556 107.997 118.884C107.379 119.211 106.672 119.375 105.873 119.375H103.971V122.879H101.397V111.78H105.791ZM103.971 117.029H105.807C106.265 117.029 106.632 116.894 106.91 116.624C107.187 116.354 107.327 116.003 107.327 115.569C107.327 115.134 107.18 114.783 106.886 114.513C106.593 114.243 106.208 114.107 105.728 114.107H103.971V117.029Z" fill="black"/>
<path d="M79.425 111.393C80.2188 110.803 81.102 110.753 81.8644 111.286L90.4191 117.469L89.8247 119.294L80.4525 112.566C79.3075 111.809 78.8616 111.89 78.8616 111.89C78.9978 111.747 79.1945 111.562 79.425 111.393Z" fill="black"/>
<path d="M82.0922 109.563C82.6843 109.35 83.3819 109.414 83.94 109.804L91.2103 115.045H91.2075L90.6131 116.874L82.6612 111.177C81.4237 110.323 80.833 110.5 80.8144 110.506C81.3874 109.794 82.072 109.569 82.0922 109.563Z" fill="black"/>
<path d="M84.0966 108.122C84.6861 107.906 85.3863 107.971 85.9444 108.361L91.6556 112.475V112.477C91.708 112.544 91.8888 112.896 91.4906 114.188L91.3781 114.534L85.2628 110.16L85.2684 110.169C85.2684 110.169 85.1684 110.095 84.8278 109.851C83.4612 108.869 82.7876 109.073 82.7766 109.076C83.3408 108.421 84.0612 108.131 84.0966 108.122Z" fill="black"/>
<path fill-rule="evenodd" clip-rule="evenodd" d="M167.017 112.765C167.133 112.763 167.227 112.794 167.301 112.859C167.374 112.924 167.41 113.01 167.41 113.114C167.41 113.182 167.392 113.244 167.358 113.299C167.321 113.353 167.274 113.395 167.214 113.424L167.455 113.824H167.182L166.978 113.468H166.839V113.824H166.598V112.765H167.017ZM166.837 113.249H167.01C167.054 113.249 167.091 113.236 167.117 113.21C167.146 113.184 167.159 113.153 167.159 113.114C167.159 113.075 167.143 113.044 167.114 113.018C167.085 112.992 167.046 112.979 167.002 112.979H166.837V113.249Z" fill="black"/>
<path fill-rule="evenodd" clip-rule="evenodd" d="M166.986 112.311C167.127 112.311 167.256 112.337 167.379 112.389C167.502 112.441 167.61 112.513 167.704 112.604C167.795 112.695 167.869 112.805 167.921 112.927C167.974 113.049 168 113.182 168 113.322C168 113.463 167.974 113.59 167.921 113.714C167.869 113.836 167.795 113.943 167.704 114.037C167.609 114.128 167.502 114.201 167.379 114.253C167.256 114.305 167.124 114.331 166.986 114.331C166.844 114.331 166.711 114.305 166.588 114.253C166.465 114.201 166.357 114.128 166.263 114.037C166.169 113.946 166.098 113.836 166.045 113.714C165.993 113.592 165.967 113.462 165.967 113.322C165.967 113.182 165.993 113.049 166.045 112.927C166.098 112.805 166.171 112.698 166.263 112.604C166.354 112.513 166.465 112.441 166.588 112.389C166.711 112.337 166.844 112.311 166.986 112.311ZM166.986 112.55C166.834 112.55 166.698 112.583 166.582 112.648C166.467 112.713 166.378 112.805 166.312 112.919C166.247 113.034 166.216 113.169 166.216 113.322C166.216 113.476 166.247 113.606 166.312 113.723C166.378 113.84 166.467 113.93 166.582 113.993C166.698 114.058 166.831 114.089 166.986 114.089C167.138 114.089 167.272 114.058 167.387 113.993C167.502 113.928 167.591 113.84 167.657 113.723C167.722 113.606 167.753 113.473 167.753 113.322C167.753 113.172 167.722 113.031 167.657 112.919C167.591 112.807 167.502 112.716 167.387 112.648C167.272 112.581 167.138 112.55 166.986 112.55Z" fill="black"/>
</svg>
