<svg width="240" height="240" viewBox="0 0 240 240" fill="none" xmlns="http://www.w3.org/2000/svg">
<path fill-rule="evenodd" clip-rule="evenodd" d="M140.998 113.271C143.759 114.326 146.376 115.649 148.688 117.326C151.376 119.296 153.434 122.776 150.734 125.785C149.148 127.468 146.86 128.321 144.731 128.904C142.24 129.502 139.611 129.868 136.852 130.035L138.554 126.517C139.269 126.468 140.048 126.409 140.759 126.334C140.844 126.322 140.929 126.308 141.013 126.296C143.726 125.891 146.533 125.475 148.551 123.756C150.726 121.573 146.199 118.504 144.486 117.352C143.093 116.481 141.653 115.695 140.178 114.98L141.002 113.273L140.998 113.271ZM136.921 113.524C133.308 112.035 129.543 110.859 125.776 109.755C129.596 110.237 133.673 110.956 137.596 112.123L136.921 113.524Z" fill="black"/>
<path fill-rule="evenodd" clip-rule="evenodd" d="M140.069 107.002H144.02L140.998 113.271L131.449 133.076H127.319L114.75 107.002H118.7L129.385 129.125L140.069 107V107.002ZM108.721 110.953L103.445 121.88C107.619 123.32 112.51 124.312 115.461 124.904L108.721 110.953ZM100.057 120.689L106.657 107.002H110.787L123.356 133.076H119.405L117.262 128.641L117.231 128.636C112.111 127.796 106.343 126.188 102.11 124.64L98.0365 133.074H94.082L98.8148 123.267L97.4183 122.644C93.2998 120.655 88.079 117.473 88 113.359C88.4484 107.887 97.9299 107.553 102.042 107.624C98.7437 108.134 95.3264 108.734 92.3575 110.275C85.7086 113.821 94.2242 118.247 97.9674 119.851C98.2104 119.956 99.5694 120.497 100.059 120.687L100.057 120.689Z" fill="black"/>
<path fill-rule="evenodd" clip-rule="evenodd" d="M147.2 108.274L146.971 107.573H146.75V108.977H146.923V108.416L146.91 107.849L147.149 108.586H147.251L147.51 107.829L147.496 108.416V108.977H147.67V107.573H147.449L147.202 108.274H147.2ZM145.965 107.725H146.4V107.573H145.359V107.725H145.794V108.977H145.967V107.725H145.965Z" fill="black"/>
</svg>
