<svg width="240" height="240" viewBox="0 0 240 240" fill="none" xmlns="http://www.w3.org/2000/svg">
<path d="M83.8095 119.038H75.9049V113.261H72V127.689H75.9049V121.324H83.8095V127.689H87.7347V113.261H83.8095V119.038Z" fill="black"/>
<path d="M94.9179 113.261H90.9656V127.692H94.9179V113.261Z" fill="black"/>
<path d="M168 113.261H164.048V127.692H168V113.261Z" fill="black"/>
<path d="M111.713 113.261H96.3607V115.664H102.098V127.689H105.976V115.664H111.713V113.261Z" fill="black"/>
<path d="M115.35 113.284L108.34 127.689H112.725L114.1 124.457H121.497L122.848 127.689H127.258L120.295 113.284H115.35ZM115.086 122.174L117.809 115.736L120.508 122.174H115.086Z" fill="black"/>
<path d="M135.399 125.829C133.882 125.829 130.773 125.521 130.726 120.525C130.678 115.809 133.52 115.148 135.399 115.148C137.255 115.171 139.111 116.021 139.135 118.165H143.135C143.084 115.548 140.774 113.05 135.399 113C131.4 112.977 126.557 114.58 126.533 120.452C126.509 126.275 131.451 128.092 135.399 127.996C139.037 127.877 143.087 126.889 143.257 122.504L139.233 122.527C139.111 125.264 136.873 125.805 135.403 125.829H135.399Z" fill="black"/>
<path d="M156.99 119.038H149.085V113.261H145.184V127.689H149.085V121.324H156.99V127.689H160.891V113.261H156.99V119.038Z" fill="black"/>
</svg>
