<svg width="240" height="240" viewBox="0 0 240 240" fill="none" xmlns="http://www.w3.org/2000/svg">
<path d="M106.788 125.403C106.788 124.554 106.517 123.901 105.975 123.446C105.434 122.978 104.659 122.757 103.649 122.757H99.7847V128.037H103.649C104.659 128.037 105.434 127.815 105.975 127.36C106.517 126.905 106.788 126.252 106.788 125.403Z" fill="black"/>
<path d="M99.7847 136.96H104.031C105.052 136.96 105.852 136.714 106.431 136.234C107.009 135.754 107.292 135.065 107.292 134.178C107.292 133.268 106.997 132.566 106.382 132.049C105.779 131.532 104.966 131.286 103.945 131.286H99.7847V136.96Z" fill="black"/>
<path d="M120.572 100.012C107.982 100.012 97.557 108.542 96.3755 119.348H104.252C105.68 119.348 106.911 119.582 107.945 120.037C108.979 120.505 109.766 121.145 110.295 121.969C110.825 122.794 111.095 123.729 111.095 124.775C111.095 126.006 110.763 127.028 110.111 127.852C109.114 129.169 107.502 129.6 107.502 129.6C107.502 129.6 109.212 129.809 110.431 131.385C111.194 132.345 111.575 133.452 111.575 134.708C111.575 135.828 111.305 136.825 110.751 137.674C110.197 138.523 109.397 139.2 108.351 139.68C108.092 139.803 107.809 139.914 107.526 140C109.631 140 111.982 140 114.505 140V124.382H118.726V139.988C118.911 139.988 119.108 139.988 119.305 139.988C120.634 139.988 121.939 139.889 123.219 139.705C124.646 139.483 125.126 139.36 125.126 139.36C125.126 139.36 124.486 138.966 124.019 138.523C123.415 137.969 122.899 137.317 122.48 136.566C121.742 135.262 121.385 133.748 121.385 132.037C121.385 130.326 121.766 128.825 122.517 127.508C123.268 126.203 124.302 125.194 125.606 124.48C126.911 123.766 128.375 123.409 129.975 123.409C131.588 123.409 133.04 123.766 134.345 124.48C135.649 125.194 136.683 126.203 137.434 127.508C137.877 128.283 138.185 129.12 138.369 130.018C138.505 130.597 138.542 131.422 138.554 131.594C138.763 131.36 139.379 130.622 139.686 130.191C140.708 128.812 141.545 127.323 142.185 125.76C143.465 123.163 143.539 120.037 143.539 120.037C143.575 119.557 143.625 100 143.625 100C143.625 100 126.185 100.012 120.572 100.012ZM119.415 119.865C119.415 121.083 118.283 122.08 116.892 122.08C116.314 122.08 114.505 122.08 114.505 122.08C114.505 122.08 114.505 120.049 114.517 120C114.517 120 114.529 119.68 114.652 119.409C114.997 118.548 115.932 117.932 117.028 117.932C118.419 117.932 119.415 117.932 119.415 117.932C119.415 117.932 119.415 119.594 119.415 119.865Z" fill="black"/>
<path d="M132.006 136.419C132.683 136.049 133.212 135.483 133.618 134.745C134.025 134.006 134.221 133.095 134.221 132.037C134.221 130.449 133.803 129.231 132.966 128.369C132.129 127.52 131.108 127.089 129.901 127.089C128.695 127.089 127.686 127.52 126.874 128.369C126.061 129.219 125.655 130.449 125.655 132.037C125.655 133.625 126.049 134.843 126.849 135.705C127.637 136.554 128.646 136.985 129.852 136.985C130.615 136.972 131.341 136.788 132.006 136.419Z" fill="black"/>
</svg>
