<svg width="240" height="240" viewBox="0 0 240 240" fill="none" xmlns="http://www.w3.org/2000/svg">
<path d="M73.4451 110.292C73.4451 109.908 73.3818 109.626 73.1599 109.402L72.2218 108.48C72.1585 108.384 72 108.288 72 108.192C72 108.096 72.0634 108 72.1901 108H77.1277C77.2545 108 77.3178 108.096 77.3178 108.192C77.3178 108.288 77.1594 108.384 77.096 108.48L76.1516 109.402C75.9298 109.626 75.8664 109.908 75.8664 110.292V130.252H77.1277C77.508 130.252 77.8186 130.156 77.9453 129.778L79.8975 123.612C79.9609 123.483 79.9609 123.387 80.0877 123.387C80.1828 123.387 80.2461 123.483 80.2461 123.612V131.398C80.2461 131.686 80.1511 131.84 79.8975 131.84H72.1901C72.0634 131.84 72 131.744 72 131.648C72 131.552 72.1585 131.488 72.2218 131.36L73.1662 130.438C73.3881 130.213 73.4515 129.932 73.4515 129.547V110.292H73.4451Z" fill="black"/>
<path d="M81.7166 115.53C81.7166 115.242 81.6659 114.999 81.5265 114.858L80.7912 114.16C80.7215 114.09 80.6708 114.019 80.6708 113.942C80.6708 113.866 80.7215 113.795 80.8102 113.795H84.4548C84.5498 113.795 84.6006 113.866 84.6006 113.942C84.6006 114.019 84.5498 114.09 84.4801 114.16L83.7449 114.858C83.6245 115.005 83.5547 115.242 83.5547 115.53V128.619C83.5547 129.676 83.6498 130.642 84.7717 130.642C85.6527 130.642 85.8936 129.682 85.8936 128.619V115.53C85.8936 115.242 85.8429 114.999 85.7034 114.858L84.9682 114.16C84.8985 114.09 84.8477 114.019 84.8477 113.942C84.8477 113.866 84.8985 113.795 84.9935 113.795H88.2578C88.3528 113.795 88.4035 113.866 88.4035 113.942C88.4035 114.019 88.3528 114.09 88.2831 114.16L87.5479 114.858C87.4274 115.005 87.3577 115.242 87.3577 115.53V129.24C87.3577 130.732 86.2168 131.84 84.5942 131.84C82.7117 131.84 81.7356 130.732 81.7356 129.24V115.53H81.7166Z" fill="black"/>
<path d="M91.6931 130.111C91.6931 130.399 91.7438 130.617 91.9086 130.783L92.6249 131.481C92.6756 131.552 92.7896 131.629 92.7896 131.699C92.7896 131.769 92.7453 131.846 92.6439 131.846H88.9043C88.8092 131.846 88.7648 131.776 88.7648 131.699C88.7648 131.622 88.8852 131.552 88.9296 131.481L89.6458 130.783C89.8106 130.617 89.8613 130.399 89.8613 130.111V115.53C89.8613 115.242 89.8106 115.025 89.6458 114.858L88.9296 114.16C88.8789 114.09 88.7648 114.019 88.7648 113.942C88.7648 113.866 88.8155 113.795 88.9043 113.795H91.8833C94.3615 113.795 95.6482 115.121 95.6482 118.245C95.6482 120.916 94.7228 121.998 93.8862 122.529C94.6975 122.965 95.4074 123.9 95.4074 125.225V130.252C95.4074 130.418 95.5024 130.566 95.6229 130.687L96.3835 131.507C96.4785 131.603 96.5736 131.699 96.5736 131.769C96.5736 131.84 96.4532 131.84 96.3328 131.84H95.0968C94.0003 131.84 93.5756 131.116 93.5756 130.303V125.129C93.5756 124.073 92.9354 123.279 92.0988 123.279H91.6931V130.111ZM91.6931 122.075H92.0481C93.2143 122.075 93.6897 121.14 93.6897 118.252C93.6897 115.799 93.2143 115.005 92.0481 115.005H91.6931V122.075Z" fill="black"/>
<path d="M101.27 127.825C101.245 127.703 101.175 127.607 101.055 127.607H99.2927C99.223 127.607 99.1723 127.678 99.1533 127.774L98.7984 130.418C98.773 130.585 98.8237 130.732 98.9188 130.854L99.4449 131.404C99.5399 131.526 99.6857 131.622 99.6857 131.693C99.6857 131.763 99.635 131.84 99.5209 131.84H96.7828C96.6877 131.84 96.637 131.769 96.637 131.693C96.637 131.616 96.7321 131.526 96.8018 131.449L97.4673 130.777C97.6068 130.636 97.6321 130.393 97.6575 130.175L99.8252 114.006C99.8505 113.885 99.8949 113.789 100.015 113.789H100.896C101.017 113.789 101.086 113.91 101.112 114.051L103.375 130.194C103.4 130.438 103.47 130.7 103.634 130.841L104.325 131.469C104.395 131.539 104.471 131.616 104.471 131.686C104.471 131.757 104.42 131.834 104.306 131.834H100.877C100.757 131.834 100.713 131.763 100.713 131.686C100.713 131.609 100.808 131.539 100.877 131.469L101.517 130.822C101.613 130.726 101.663 130.559 101.638 130.342L101.283 127.819L101.27 127.825ZM100.934 126.333C101.004 126.333 101.055 126.263 101.029 126.166L100.199 120.275H100.155L99.3688 126.192C99.3435 126.288 99.3942 126.339 99.4385 126.339H100.941L100.934 126.333Z" fill="black"/>
<path d="M106.195 124.361L104.433 115.53C104.408 115.338 104.313 115.146 104.173 114.98L103.508 114.16C103.463 114.09 103.362 113.994 103.362 113.898C103.362 113.827 103.432 113.801 103.527 113.801H106.93C107.051 113.801 107.121 113.827 107.121 113.923C107.121 113.994 107.051 114.09 106.956 114.166L106.221 114.864C106.125 114.961 106.1 115.127 106.151 115.319L107.222 120.634H107.266L108.388 115.319C108.433 115.127 108.414 114.961 108.293 114.864L107.533 114.166C107.437 114.096 107.368 114 107.368 113.923C107.368 113.827 107.463 113.801 107.583 113.801H110.727C110.847 113.801 110.917 113.827 110.917 113.898C110.917 113.994 110.847 114.064 110.752 114.16L109.966 114.98C109.846 115.127 109.776 115.319 109.726 115.53L108.033 123.612V130.105C108.033 130.393 108.084 130.61 108.249 130.777L108.965 131.475C109.009 131.545 109.13 131.622 109.13 131.693C109.13 131.763 109.079 131.84 108.984 131.84H105.244C105.149 131.84 105.099 131.769 105.099 131.693C105.099 131.616 105.219 131.545 105.263 131.475L105.98 130.777C106.144 130.61 106.195 130.393 106.195 130.105V124.354V124.361Z" fill="black"/>
<path d="M123.613 116.273C123.613 116.433 123.549 116.561 123.423 116.561C123.264 116.561 123.201 116.401 123.169 116.209C122.789 113.539 121.882 109.755 120.273 109.755C118.891 109.755 118.637 112.771 118.637 119.481C118.637 129.016 119.328 130.412 120.748 130.412C122.478 130.412 123.137 124.566 123.137 124.277C123.137 124.117 123.233 124.021 123.391 124.021C123.549 124.021 123.613 124.117 123.613 124.309C123.613 129.016 122.922 132 120.152 132C116.47 132 116.064 124.751 116.064 119.443C116.064 115.537 116.222 108.16 120.152 108.16C120.653 108.16 121.192 108.448 121.661 108.826C121.851 108.986 122.041 109.018 122.193 109.018C122.345 109.018 122.573 108.89 122.789 108.634C122.979 108.41 123.226 108.16 123.385 108.16C123.575 108.16 123.606 108.384 123.606 108.698V116.26L123.613 116.273Z" fill="black"/>
<path d="M128.683 127.825C128.658 127.703 128.588 127.607 128.468 127.607H126.706C126.636 127.607 126.585 127.678 126.56 127.774L126.205 130.418C126.18 130.585 126.231 130.732 126.326 130.854L126.852 131.404C126.947 131.526 127.093 131.622 127.093 131.693C127.093 131.763 127.048 131.84 126.928 131.84H124.19C124.095 131.84 124.05 131.769 124.05 131.693C124.05 131.616 124.145 131.526 124.215 131.449L124.88 130.777C125.026 130.636 125.045 130.393 125.071 130.175L127.238 114.006C127.264 113.885 127.308 113.789 127.428 113.789H128.31C128.43 113.789 128.5 113.91 128.525 114.051L130.788 130.194C130.813 130.438 130.883 130.7 131.048 130.841L131.739 131.469C131.808 131.539 131.884 131.616 131.884 131.686C131.884 131.757 131.84 131.834 131.72 131.834H128.29C128.17 131.834 128.126 131.763 128.126 131.686C128.126 131.609 128.221 131.539 128.29 131.469L128.931 130.822C129.026 130.726 129.076 130.559 129.051 130.342L128.696 127.819L128.683 127.825ZM128.348 126.333C128.417 126.333 128.468 126.263 128.443 126.166L127.612 120.275H127.562L126.776 126.192C126.75 126.288 126.801 126.339 126.845 126.339H128.348V126.333Z" fill="black"/>
<path d="M131.276 115.607C131.231 115.345 131.155 115.153 130.991 114.98L130.205 114.186C130.11 114.09 130.059 113.994 130.059 113.898C130.059 113.827 130.129 113.801 130.274 113.801H133.963C134.033 113.801 134.109 113.827 134.109 113.898C134.109 113.994 134.058 114.09 133.989 114.16L133.367 114.736C133.177 114.903 133.057 115.172 133.082 115.383L134.299 123.829H134.35L135.351 115.383C135.377 115.165 135.256 114.928 135.066 114.736L134.496 114.16C134.426 114.09 134.356 113.994 134.356 113.898C134.356 113.827 134.451 113.801 134.521 113.801H137.709C137.855 113.801 137.925 113.827 137.925 113.898C137.925 113.994 137.874 114.09 137.779 114.186L136.993 114.98C136.828 115.146 136.733 115.338 136.708 115.607L134.825 131.584C134.8 131.75 134.73 131.846 134.584 131.846H133.748C133.627 131.846 133.583 131.776 133.558 131.654L131.27 115.607H131.276Z" fill="black"/>
<path d="M141.759 122.049C141.88 122.049 141.975 122.004 142.019 121.883L142.85 120.199C142.9 120.102 142.919 120.051 142.995 120.051C143.071 120.051 143.09 120.102 143.09 120.199V125.296C143.09 125.366 143.065 125.417 142.995 125.417C142.9 125.417 142.875 125.347 142.831 125.251L142.019 123.496C141.969 123.375 141.873 123.33 141.759 123.33H141.233V130.642H142.59C142.9 130.642 143.135 130.495 143.23 130.207L144.517 125.59C144.542 125.494 144.612 125.443 144.681 125.443C144.751 125.443 144.802 125.513 144.802 125.59V131.629C144.802 131.75 144.732 131.846 144.612 131.846H138.444C138.349 131.846 138.299 131.776 138.299 131.699C138.299 131.622 138.419 131.577 138.463 131.481L139.18 130.783C139.345 130.617 139.395 130.399 139.395 130.111V115.53C139.395 115.242 139.345 115.025 139.18 114.858L138.463 114.16C138.419 114.09 138.299 114.019 138.299 113.942C138.299 113.866 138.343 113.795 138.444 113.795H144.612C144.707 113.795 144.802 113.891 144.802 114.013V120C144.802 120.096 144.757 120.141 144.681 120.141C144.586 120.141 144.517 120.07 144.491 119.974L143.205 115.454C143.109 115.14 142.894 114.999 142.583 114.999H141.227V122.049H141.759Z" fill="black"/>
<path d="M148.586 130.111C148.586 130.399 148.636 130.617 148.801 130.783L149.517 131.481C149.562 131.552 149.682 131.629 149.682 131.699C149.682 131.769 149.638 131.846 149.537 131.846H145.797C145.702 131.846 145.651 131.776 145.651 131.699C145.651 131.622 145.772 131.552 145.816 131.481L146.532 130.783C146.697 130.617 146.748 130.399 146.748 130.111V115.53C146.748 115.242 146.697 115.025 146.532 114.858L145.816 114.16C145.772 114.09 145.651 114.019 145.651 113.942C145.651 113.866 145.695 113.795 145.797 113.795H148.776C151.254 113.795 152.541 115.121 152.541 118.245C152.541 120.916 151.615 121.998 150.779 122.529C151.59 122.965 152.3 123.9 152.3 125.225V130.252C152.3 130.418 152.395 130.566 152.516 130.687L153.276 131.507C153.371 131.603 153.466 131.699 153.466 131.769C153.466 131.84 153.346 131.84 153.225 131.84H151.989C150.893 131.84 150.468 131.116 150.468 130.303V125.129C150.468 124.073 149.828 123.279 148.991 123.279H148.586V130.111ZM148.586 122.075H148.941C150.107 122.075 150.582 121.14 150.582 118.252C150.582 115.799 150.107 115.005 148.941 115.005H148.586V122.075Z" fill="black"/>
<path d="M154.734 115.53C154.734 115.242 154.664 115.05 154.518 114.858L153.923 114.16C153.878 114.09 153.758 114.019 153.758 113.917C153.758 113.872 153.802 113.795 153.904 113.795H156.762C156.927 113.795 157.003 113.962 157.047 114.205L159.24 124.546H159.291V115.524C159.291 115.236 159.24 115.044 159.076 114.877L158.41 114.154C158.366 114.083 158.245 114.013 158.245 113.91C158.245 113.866 158.29 113.789 158.385 113.789H161.529C161.624 113.789 161.674 113.859 161.674 113.91C161.674 114.006 161.579 114.077 161.51 114.154L160.914 114.852C160.768 115.044 160.698 115.236 160.698 115.524V131.571C160.698 131.737 160.629 131.834 160.457 131.834H159.456C159.24 131.834 159.05 131.59 158.981 131.232L156.192 118.124H156.141V130.105C156.141 130.393 156.211 130.585 156.382 130.751L157.022 131.475C157.092 131.545 157.187 131.622 157.187 131.718C157.187 131.769 157.136 131.84 157.041 131.84H153.897C153.802 131.84 153.751 131.769 153.751 131.718C153.751 131.622 153.872 131.552 153.916 131.475L154.512 130.777C154.652 130.585 154.728 130.393 154.728 130.105V115.53H154.734Z" fill="black"/>
<path d="M167.613 120.032C167.613 120.102 167.569 120.154 167.468 120.154C167.398 120.154 167.347 120.083 167.328 119.987C166.948 118.041 165.807 115.005 164.71 115.005C164.115 115.005 164.07 115.511 164.07 116.139C164.07 117.317 164.381 118.495 166.143 122.273C167.81 125.834 168 126.628 168 128.529C168 131.078 166.688 131.846 165.807 131.846C165.167 131.846 164.761 131.584 164.476 131.392C164.216 131.225 164.07 131.148 164.001 131.148C163.905 131.148 163.715 131.315 163.24 131.68C163.145 131.75 163.05 131.846 162.955 131.846C162.86 131.846 162.834 131.795 162.834 131.725V125.661C162.834 125.59 162.86 125.494 162.955 125.494C163.024 125.494 163.075 125.59 163.1 125.661C163.531 127.588 164.267 130.642 165.674 130.642C166.124 130.642 166.365 130.137 166.365 129.394C166.365 127.78 165.648 126.026 164.292 123.138C163.005 120.397 162.53 118.566 162.53 116.811C162.53 114.525 163.506 113.801 164.723 113.801C165.173 113.801 165.699 114.064 166.054 114.352C166.175 114.423 166.314 114.499 166.409 114.499C166.504 114.499 166.745 114.333 166.954 114.115C167.17 113.923 167.309 113.801 167.455 113.801C167.575 113.801 167.62 113.923 167.62 114.064V120.032H167.613Z" fill="black"/>
</svg>
