<svg width="16" height="16" viewBox="0 0 16 16" fill="none" xmlns="http://www.w3.org/2000/svg">
<path d="M10.6666 1.3335H13.3333V2.66683H10.6666V1.3335ZM11.9999 2.66683H13.3333V4.00016H11.9999V2.66683ZM10.6666 4.00016H11.9999V5.3335H10.6666V4.00016ZM9.33325 5.3335H10.6666V6.66683H9.33325V5.3335ZM7.99992 6.66683H9.33325V8.00016H7.99992V6.66683ZM6.66659 8.00016H7.99992V9.3335H6.66659V8.00016ZM5.33325 9.3335H6.66659V10.6668H5.33325V9.3335ZM3.99992 10.6668H5.33325V12.0002H3.99992V10.6668ZM2.66659 12.0002H3.99992V13.3335H2.66659V12.0002ZM1.33325 10.6668H2.66659V13.3335H1.33325V10.6668ZM2.66659 9.3335H3.99992V10.6668H2.66659V9.3335ZM3.99992 8.00016H5.33325V9.3335H3.99992V8.00016ZM5.33325 6.66683H6.66659V8.00016H5.33325V6.66683ZM6.66659 5.3335H7.99992V6.66683H6.66659V5.3335ZM7.99992 4.00016H9.33325V5.3335H7.99992V4.00016ZM9.33325 2.66683H10.6666V4.00016H9.33325V2.66683ZM9.33325 4.00016H10.6666V5.3335H9.33325V4.00016ZM10.6666 2.66683H11.9999V4.00016H10.6666V2.66683ZM10.6666 8.00016H11.9999V9.3335H10.6666V8.00016ZM10.6666 13.3335H11.9999V14.6668H10.6666V13.3335ZM7.99992 10.6668H9.33325V12.0002H7.99992V10.6668ZM13.3333 10.6668H14.6666V12.0002H13.3333V10.6668ZM9.33325 9.3335H10.6666V10.6668H9.33325V9.3335ZM11.9999 9.3335H13.3333V10.6668H11.9999V9.3335ZM11.9999 12.0002H13.3333V13.3335H11.9999V12.0002ZM9.33325 12.0002H10.6666V13.3335H9.33325V12.0002ZM2.66659 1.3335H3.99992V2.66683H2.66659V1.3335ZM1.33325 2.66683H2.66659V4.00016H1.33325V2.66683ZM2.66659 4.00016H3.99992V5.3335H2.66659V4.00016ZM3.99992 2.66683H5.33325V4.00016H3.99992V2.66683ZM13.3333 6.66683H14.6666V8.00016H13.3333V6.66683ZM5.33325 13.3335H6.66659V14.6668H5.33325V13.3335Z" fill="black"/>
</svg>
