<svg width="20" height="20" viewBox="0 0 20 20" fill="none" xmlns="http://www.w3.org/2000/svg">
<g clip-path="url(#clip0_522_73205)">
<path d="M9.99783 5.55566H8.88672V6.66678H9.99783V5.55566Z" fill="white"/>
<path d="M11.1111 5.55566H10V6.66678H11.1111V5.55566Z" fill="white"/>
<path d="M8.88845 6.66675H7.77734V7.77786H8.88845V6.66675Z" fill="white"/>
<path d="M12.2205 6.66675H11.1094V7.77786H12.2205V6.66675Z" fill="white"/>
<path d="M8.88845 7.77783H7.77734V8.88894H8.88845V7.77783Z" fill="white"/>
<path d="M12.2205 7.77783H11.1094V8.88894H12.2205V7.77783Z" fill="white"/>
<path d="M8.88845 8.88892H7.77734V10H8.88845V8.88892Z" fill="white"/>
<path d="M12.2205 8.88892H11.1094V10H12.2205V8.88892Z" fill="white"/>
<path d="M7.77517 10H6.66406V11.1111H7.77517V10Z" fill="white"/>
<path d="M8.88845 10H7.77734V11.1111H8.88845V10Z" fill="white"/>
<path d="M9.99783 10H8.88672V11.1111H9.99783V10Z" fill="white"/>
<path d="M11.1111 10H10V11.1111H11.1111V10Z" fill="white"/>
<path d="M12.2205 10H11.1094V11.1111H12.2205V10Z" fill="white"/>
<path d="M13.3338 10H12.2227V11.1111H13.3338V10Z" fill="white"/>
<path d="M6.6658 11.1113H5.55469V12.2224H6.6658V11.1113Z" fill="white"/>
<path d="M14.4431 11.1113H13.332V12.2224H14.4431V11.1113Z" fill="white"/>
<path d="M5.55252 12.2224H4.44141V13.3335H5.55252V12.2224Z" fill="white"/>
<path d="M8.88845 12.2224H7.77734V13.3335H8.88845V12.2224Z" fill="white"/>
<path d="M12.2205 12.2224H11.1094V13.3335H12.2205V12.2224Z" fill="white"/>
<path d="M15.5525 12.2224H14.4414V13.3335H15.5525V12.2224Z" fill="white"/>
<path d="M4.44314 13.3335H3.33203V14.4446H4.44314V13.3335Z" fill="white"/>
<path d="M5.55252 13.3335H4.44141V14.4446H5.55252V13.3335Z" fill="white"/>
<path d="M6.6658 13.3335H5.55469V14.4446H6.6658V13.3335Z" fill="white"/>
<path d="M7.77517 13.3335H6.66406V14.4446H7.77517V13.3335Z" fill="white"/>
<path d="M8.88845 13.3335H7.77734V14.4446H8.88845V13.3335Z" fill="white"/>
<path d="M9.99783 13.3335H8.88672V14.4446H9.99783V13.3335Z" fill="white"/>
<path d="M11.1111 13.3335H10V14.4446H11.1111V13.3335Z" fill="white"/>
<path d="M12.2205 13.3335H11.1094V14.4446H12.2205V13.3335Z" fill="white"/>
<path d="M13.3338 13.3335H12.2227V14.4446H13.3338V13.3335Z" fill="white"/>
<path d="M14.4431 13.3335H13.332V14.4446H14.4431V13.3335Z" fill="white"/>
<path d="M15.5525 13.3335H14.4414V14.4446H15.5525V13.3335Z" fill="white"/>
<path d="M16.6658 13.3335H15.5547V14.4446H16.6658V13.3335Z" fill="white"/>
<path d="M7.77517 14.4446H6.66406V15.5557H7.77517V14.4446Z" fill="white"/>
<path d="M13.3338 14.4446H12.2227V15.5557H13.3338V14.4446Z" fill="white"/>
<path d="M6.6658 15.5557H5.55469V16.6668H6.6658V15.5557Z" fill="white"/>
<path d="M14.4431 15.5557H13.332V16.6668H14.4431V15.5557Z" fill="white"/>
</g>
<defs>
<clipPath id="clip0_522_73205">
<rect width="20" height="20" fill="white"/>
</clipPath>
</defs>
</svg>
