<svg width="112" height="112" viewBox="0 0 112 112" fill="none" xmlns="http://www.w3.org/2000/svg">
<g id="icon-folder-clicked">
<g id="Group 2">
<g id="folder-back" filter="url(#filter0_d_68_47456)">
<path d="M18.328 93.3257C15.7628 93.3257 13.5676 92.413 11.7424 90.5877C9.91726 88.7623 9.00311 86.5653 9 83.9967V28.0224C9 25.4569 9.91415 23.2615 11.7424 21.4361C13.5707 19.6107 15.7659 18.6965 18.328 18.6934H42.4643C43.708 18.6934 44.8942 18.9266 46.0229 19.393C47.1516 19.8595 48.1419 20.5203 48.9939 21.3755L55.6401 28.0224H92.9522C95.5174 28.0224 97.7141 28.9367 99.5424 30.7651C101.371 32.5936 102.283 34.7891 102.28 37.3515V83.9967C102.28 86.5622 101.368 88.7592 99.5424 90.5877C97.7172 92.4161 95.5205 93.3288 92.9522 93.3257H18.328Z" fill="url(#paint0_linear_68_47456)"/>
<path d="M42.4639 19.1934C43.6433 19.1934 44.765 19.4145 45.832 19.8555C46.9003 20.297 47.835 20.9208 48.6396 21.7285H48.6406L55.2861 28.376L55.4326 28.5225H92.9521C95.3835 28.5225 97.4531 29.3836 99.1885 31.1191C100.924 32.8546 101.783 34.9225 101.78 37.3506V83.9971C101.78 86.4289 100.921 88.499 99.1885 90.2344C97.4567 91.9693 95.3874 92.829 92.9531 92.8262H18.3281C15.8965 92.8262 13.8278 91.9666 12.0957 90.2344C10.4718 88.6103 9.61406 86.6889 9.51074 84.4482L9.5 83.9961V28.0225C9.5 25.5908 10.3606 23.5224 12.0957 21.79C13.7229 20.1654 15.643 19.3074 17.8779 19.2041L18.3291 19.1934H42.4639Z" stroke="#15F2FE"/>
</g>
<g id="paper-1" filter="url(#filter1_i_68_47456)">
<rect x="12.3125" y="25.2437" width="85.3415" height="59.5471" rx="2" fill="white"/>
</g>
<g id="paper-2" filter="url(#filter2_i_68_47456)">
<rect width="85.3414" height="59.5471" rx="2" transform="matrix(0.996917 0.0784591 -0.0784302 0.99692 15.5425 21.1499)" fill="white"/>
</g>
<g id="paper-3" filter="url(#filter3_i_68_47456)">
<rect width="85.3416" height="59.547" rx="2" transform="matrix(0.990265 0.139197 -0.139149 0.990271 18.4893 18.6743)" fill="white"/>
</g>
<path id="folder-front" d="M20.1885 34.1201H91.0986C97.0037 34.1203 101.78 38.9082 101.78 44.8154V84.7969C101.78 86.9936 100.933 88.8712 99.2051 90.4541C97.4761 92.0378 95.4012 92.8288 92.9531 92.8262H18.3281C15.8829 92.8262 13.8093 92.0351 12.0801 90.4541C10.4602 88.9729 9.61284 87.2298 9.51074 85.2051L9.5 84.7959V44.8154C9.5 38.9085 14.2829 34.1201 20.1885 34.1201Z" fill="#00F2FF" stroke="#01D4DF"/>
</g>
</g>
<defs>
<filter id="filter0_d_68_47456" x="6" y="15.6934" width="103.28" height="84.6323" filterUnits="userSpaceOnUse" color-interpolation-filters="sRGB">
<feFlood flood-opacity="0" result="BackgroundImageFix"/>
<feColorMatrix in="SourceAlpha" type="matrix" values="0 0 0 0 0 0 0 0 0 0 0 0 0 0 0 0 0 0 127 0" result="hardAlpha"/>
<feOffset dx="2" dy="2"/>
<feGaussianBlur stdDeviation="2.5"/>
<feComposite in2="hardAlpha" operator="out"/>
<feColorMatrix type="matrix" values="0 0 0 0 0.0117647 0 0 0 0 0.654902 0 0 0 0 0.690196 0 0 0 0.25 0"/>
<feBlend mode="normal" in2="BackgroundImageFix" result="effect1_dropShadow_68_47456"/>
<feBlend mode="normal" in="SourceGraphic" in2="effect1_dropShadow_68_47456" result="shape"/>
</filter>
<filter id="filter1_i_68_47456" x="12.3125" y="25.2437" width="85.3416" height="59.5469" filterUnits="userSpaceOnUse" color-interpolation-filters="sRGB">
<feFlood flood-opacity="0" result="BackgroundImageFix"/>
<feBlend mode="normal" in="SourceGraphic" in2="BackgroundImageFix" result="shape"/>
<feColorMatrix in="SourceAlpha" type="matrix" values="0 0 0 0 0 0 0 0 0 0 0 0 0 0 0 0 0 0 127 0" result="hardAlpha"/>
<feOffset/>
<feGaussianBlur stdDeviation="2"/>
<feComposite in2="hardAlpha" operator="arithmetic" k2="-1" k3="1"/>
<feColorMatrix type="matrix" values="0 0 0 0 0.854902 0 0 0 0 0.854902 0 0 0 0 0.854902 0 0 0 0.8 0"/>
<feBlend mode="normal" in2="shape" result="effect1_innerShadow_68_47456"/>
</filter>
<filter id="filter2_i_68_47456" x="11.0227" y="21.3008" width="89.4475" height="65.7578" filterUnits="userSpaceOnUse" color-interpolation-filters="sRGB">
<feFlood flood-opacity="0" result="BackgroundImageFix"/>
<feBlend mode="normal" in="SourceGraphic" in2="BackgroundImageFix" result="shape"/>
<feColorMatrix in="SourceAlpha" type="matrix" values="0 0 0 0 0 0 0 0 0 0 0 0 0 0 0 0 0 0 127 0" result="hardAlpha"/>
<feOffset/>
<feGaussianBlur stdDeviation="2"/>
<feComposite in2="hardAlpha" operator="arithmetic" k2="-1" k3="1"/>
<feColorMatrix type="matrix" values="0 0 0 0 0.854902 0 0 0 0 0.854902 0 0 0 0 0.854902 0 0 0 0.8 0"/>
<feBlend mode="normal" in2="shape" result="effect1_innerShadow_68_47456"/>
</filter>
<filter id="filter3_i_68_47456" x="10.4619" y="18.9331" width="92.2795" height="70.3296" filterUnits="userSpaceOnUse" color-interpolation-filters="sRGB">
<feFlood flood-opacity="0" result="BackgroundImageFix"/>
<feBlend mode="normal" in="SourceGraphic" in2="BackgroundImageFix" result="shape"/>
<feColorMatrix in="SourceAlpha" type="matrix" values="0 0 0 0 0 0 0 0 0 0 0 0 0 0 0 0 0 0 127 0" result="hardAlpha"/>
<feOffset/>
<feGaussianBlur stdDeviation="2"/>
<feComposite in2="hardAlpha" operator="arithmetic" k2="-1" k3="1"/>
<feColorMatrix type="matrix" values="0 0 0 0 0.854902 0 0 0 0 0.854902 0 0 0 0 0.854902 0 0 0 0.8 0"/>
<feBlend mode="normal" in2="shape" result="effect1_innerShadow_68_47456"/>
</filter>
<linearGradient id="paint0_linear_68_47456" x1="55.6401" y1="18.6934" x2="55.6401" y2="93.3257" gradientUnits="userSpaceOnUse">
<stop offset="0.05" stop-color="#00F2FF"/>
<stop offset="0.25" stop-color="#01D4DF"/>
</linearGradient>
</defs>
</svg>
