<svg width="112" height="112" viewBox="0 0 112 112" fill="none" xmlns="http://www.w3.org/2000/svg">
<g id="icon-folder-hover">
<g id="Group 2">
<g id="folder-back" filter="url(#filter0_d_68_47463)">
<path d="M18.4 93.6038C15.815 93.6038 13.6029 92.684 11.7636 90.8446C9.92433 89.0051 9.00313 86.7912 9 84.2027V27.7965C9 25.2113 9.9212 22.9989 11.7636 21.1594C13.606 19.3199 15.8181 18.3986 18.4 18.3955H42.7225C43.9758 18.3955 45.1712 18.6305 46.3086 19.1006C47.446 19.5706 48.444 20.2365 49.3025 21.0983L56 27.7965H93.6C96.185 27.7965 98.3987 28.7178 100.241 30.5604C102.083 32.403 103.003 34.6154 103 37.1976V84.2027C103 86.788 102.08 89.002 100.241 90.8446C98.4018 92.6872 96.1881 93.6069 93.6 93.6038H18.4Z" fill="url(#paint0_linear_68_47463)"/>
<path d="M18.4004 18.8955H42.7227C43.9115 18.8955 45.0417 19.1181 46.1172 19.5625C47.1942 20.0076 48.1369 20.6368 48.9482 21.4512L48.9492 21.4521L55.6465 28.1504L55.793 28.2969H93.5996C96.0508 28.2969 98.1382 29.1644 99.8877 30.9141C101.637 32.6637 102.503 34.7493 102.5 37.1973V84.2031C102.5 86.6546 101.634 88.7418 99.8877 90.4912C98.1417 92.2403 96.0549 93.1065 93.6006 93.1035H18.4004C15.949 93.1035 13.8633 92.2375 12.1172 90.4912C10.4801 88.854 9.61495 86.917 9.51074 84.6582L9.5 84.2021V27.7969C9.5 25.3454 10.368 23.2601 12.1172 21.5137C13.7574 19.8761 15.6926 19.0105 17.9453 18.9062L18.4004 18.8955Z" stroke="#15F2FE"/>
</g>
<g id="paper-1" filter="url(#filter1_i_68_47463)">
<rect x="13.0308" y="24.751" width="86" height="60.0066" rx="2" fill="white"/>
</g>
<g id="paper-2" filter="url(#filter2_i_68_47463)">
<rect width="86" height="60.0066" rx="2" transform="matrix(1 0 2.89968e-05 1 13.0308 24.751)" fill="white"/>
</g>
<g id="paper-3" filter="url(#filter3_i_68_47463)">
<rect width="86.0002" height="60.0065" rx="2" transform="matrix(1 0 4.849e-05 1 13 25)" fill="white"/>
</g>
<path id="folder-front" d="M20.2744 33.9375H91.7314C97.6843 33.9375 102.5 38.7637 102.5 44.7188V85.0088C102.5 87.2238 101.646 89.117 99.9033 90.7129C98.1602 92.3094 96.0686 93.1072 93.6006 93.1045H18.4004C15.9352 93.1045 13.844 92.307 12.1006 90.7129C10.4673 89.2195 9.6135 87.4617 9.51074 85.4199L9.5 85.0078V44.7188C9.5 38.7642 14.3213 33.9377 20.2744 33.9375Z" fill="#00F2FF" stroke="#01D4DF"/>
</g>
</g>
<defs>
<filter id="filter0_d_68_47463" x="6" y="15.3955" width="104" height="85.2085" filterUnits="userSpaceOnUse" color-interpolation-filters="sRGB">
<feFlood flood-opacity="0" result="BackgroundImageFix"/>
<feColorMatrix in="SourceAlpha" type="matrix" values="0 0 0 0 0 0 0 0 0 0 0 0 0 0 0 0 0 0 127 0" result="hardAlpha"/>
<feOffset dx="2" dy="2"/>
<feGaussianBlur stdDeviation="2.5"/>
<feComposite in2="hardAlpha" operator="out"/>
<feColorMatrix type="matrix" values="0 0 0 0 0.0117647 0 0 0 0 0.654902 0 0 0 0 0.690196 0 0 0 0.25 0"/>
<feBlend mode="normal" in2="BackgroundImageFix" result="effect1_dropShadow_68_47463"/>
<feBlend mode="normal" in="SourceGraphic" in2="effect1_dropShadow_68_47463" result="shape"/>
</filter>
<filter id="filter1_i_68_47463" x="13.0308" y="24.751" width="86" height="60.0068" filterUnits="userSpaceOnUse" color-interpolation-filters="sRGB">
<feFlood flood-opacity="0" result="BackgroundImageFix"/>
<feBlend mode="normal" in="SourceGraphic" in2="BackgroundImageFix" result="shape"/>
<feColorMatrix in="SourceAlpha" type="matrix" values="0 0 0 0 0 0 0 0 0 0 0 0 0 0 0 0 0 0 127 0" result="hardAlpha"/>
<feOffset/>
<feGaussianBlur stdDeviation="2"/>
<feComposite in2="hardAlpha" operator="arithmetic" k2="-1" k3="1"/>
<feColorMatrix type="matrix" values="0 0 0 0 0.854902 0 0 0 0 0.854902 0 0 0 0 0.854902 0 0 0 0.8 0"/>
<feBlend mode="normal" in2="shape" result="effect1_innerShadow_68_47463"/>
</filter>
<filter id="filter2_i_68_47463" x="13.0308" y="24.751" width="86.0017" height="60.0068" filterUnits="userSpaceOnUse" color-interpolation-filters="sRGB">
<feFlood flood-opacity="0" result="BackgroundImageFix"/>
<feBlend mode="normal" in="SourceGraphic" in2="BackgroundImageFix" result="shape"/>
<feColorMatrix in="SourceAlpha" type="matrix" values="0 0 0 0 0 0 0 0 0 0 0 0 0 0 0 0 0 0 127 0" result="hardAlpha"/>
<feOffset/>
<feGaussianBlur stdDeviation="2"/>
<feComposite in2="hardAlpha" operator="arithmetic" k2="-1" k3="1"/>
<feColorMatrix type="matrix" values="0 0 0 0 0.854902 0 0 0 0 0.854902 0 0 0 0 0.854902 0 0 0 0.8 0"/>
<feBlend mode="normal" in2="shape" result="effect1_innerShadow_68_47463"/>
</filter>
<filter id="filter3_i_68_47463" x="13" y="25" width="86.0029" height="60.0063" filterUnits="userSpaceOnUse" color-interpolation-filters="sRGB">
<feFlood flood-opacity="0" result="BackgroundImageFix"/>
<feBlend mode="normal" in="SourceGraphic" in2="BackgroundImageFix" result="shape"/>
<feColorMatrix in="SourceAlpha" type="matrix" values="0 0 0 0 0 0 0 0 0 0 0 0 0 0 0 0 0 0 127 0" result="hardAlpha"/>
<feOffset/>
<feGaussianBlur stdDeviation="2"/>
<feComposite in2="hardAlpha" operator="arithmetic" k2="-1" k3="1"/>
<feColorMatrix type="matrix" values="0 0 0 0 0.854902 0 0 0 0 0.854902 0 0 0 0 0.854902 0 0 0 0.8 0"/>
<feBlend mode="normal" in2="shape" result="effect1_innerShadow_68_47463"/>
</filter>
<linearGradient id="paint0_linear_68_47463" x1="56" y1="18.3955" x2="56" y2="93.6038" gradientUnits="userSpaceOnUse">
<stop offset="0.05" stop-color="#00F2FF"/>
<stop offset="0.25" stop-color="#01D4DF"/>
</linearGradient>
</defs>
</svg>
