<svg preserveAspectRatio="none" width="100%" height="100%" overflow="visible" style="display: block;" viewBox="0 0 10 10" fill="none" xmlns="http://www.w3.org/2000/svg">
<g id="pixelarticons:close">
<path id="Vector" d="M2.91667 7.91667H2.08333V7.08333H2.91667V7.91667ZM7.91667 7.91667H7.08333V7.08333H7.91667V7.91667ZM3.75 6.25V7.08333H2.91667V6.25H3.75ZM7.08333 7.08333H6.25V6.25H7.08333V7.08333ZM4.58333 6.25H3.75V5.41667H4.58333V6.25ZM6.25 6.25H5.41667V5.41667H6.25V6.25ZM5.41667 5.41667H4.58333V4.58333H5.41667V5.41667ZM4.58333 4.58333H3.75V3.75H4.58333V4.58333ZM6.25 4.58333H5.41667V3.75H6.25V4.58333ZM3.75 3.75H2.91667V2.91667H3.75V3.75ZM7.08333 3.75H6.25V2.91667H7.08333V3.75ZM2.91667 2.91667H2.08333V2.08333H2.91667V2.91667ZM7.91667 2.91667H7.08333V2.08333H7.91667V2.91667Z" fill="black"/>
</g>
</svg>
