<svg preserveAspectRatio="none" width="100%" height="100%" overflow="visible" style="display: block;" viewBox="0 0 10 10" fill="none" xmlns="http://www.w3.org/2000/svg">
<g id="pixelarticons:close" clip-path="url(#clip0_0_16)">
<path id="Vector" d="M1.46447 8.71405L0.87521 8.12479L1.46447 7.53553L2.05372 8.12479L1.46447 8.71405ZM3.23223 8.12479L2.64298 8.71405L2.05372 8.12479L2.64298 7.53553L3.23223 8.12479ZM3.82149 8.71405L3.23223 8.12479L3.82149 7.53553L4.41074 8.12479L3.82149 8.71405ZM5 8.71405L4.41074 8.12479L5 7.53553L5.58926 8.12479L5 8.71405ZM6.17851 8.71405L5.58926 8.12479L6.17851 7.53553L6.76777 8.12479L6.17851 8.71405ZM7.35702 8.71405L6.76777 8.12479L7.35702 7.53553L7.94628 8.12479L7.35702 8.71405ZM8.53553 8.71405L7.94628 8.12479L8.53553 7.53553L9.12479 8.12479L8.53553 8.71405Z" fill="black"/>
</g>
<defs>
<clipPath id="clip0_0_16">
<rect width="10" height="10" fill="white"/>
</clipPath>
</defs>
</svg>
