<svg preserveAspectRatio="none" width="100%" height="100%" overflow="visible" style="display: block;" viewBox="0 0 96 24" fill="none" xmlns="http://www.w3.org/2000/svg">
<g id="vector">
<path d="M23.8275 7.47203C23.9611 7.56819 24.1939 7.68811 24.4322 7.8414C24.6366 7.9532 24.8151 8.10429 24.9619 8.28109C24.9725 8.29164 24.9928 8.31484 24.9928 8.31484L24.9956 8.32234C25.3834 8.81373 25.5358 9.49255 25.3341 10.1373L21.2147 22.7598H21.2119C20.9761 23.337 20.4889 23.7527 19.9256 23.9139C19.8914 23.9217 19.153 24.1066 18.3253 23.9092C18.3431 23.9031 18.9817 23.6744 19.4906 22.157L22.0191 14.3102L22.6059 12.498L23.3925 10.0642L23.4 10.0408C23.4105 10.0042 23.4445 9.89216 23.5256 9.65078L23.7009 9.10515C24.1202 7.69337 23.8196 7.46683 23.8275 7.47203Z" fill="black"/>
<path d="M19.6453 4.46453C19.8943 4.64392 20.4763 4.89592 20.8116 5.30921C21.2044 5.79794 21.361 6.47625 21.1594 7.12609L20.9766 7.68015L20.8059 8.20047L16.0162 22.7552C16.0138 22.7574 16.0087 22.7598 16.0087 22.7598C15.6996 23.5684 14.9921 24.0103 14.0541 23.9973C13.9964 23.9973 13.9394 23.9959 13.8834 23.9927L13.7081 23.9795C13.5668 23.9665 13.4386 23.9478 13.3312 23.927C13.3447 23.9203 13.7344 23.7158 14.19 22.4973L19.2131 7.04828C19.2144 7.04331 19.2475 6.92051 19.3809 6.53359C19.4228 6.41143 19.4594 6.29682 19.4934 6.18765C19.8916 4.89562 19.7108 4.54431 19.6584 4.47671C19.6514 4.46751 19.6453 4.46453 19.6453 4.46453Z" fill="black"/>
<path d="M21.7359 5.99546C21.8669 6.08906 22.0924 6.20633 22.3256 6.35453C22.53 6.46112 22.7086 6.60668 22.8553 6.77828C22.8709 6.7938 22.8817 6.81153 22.8947 6.82703C22.8972 6.83203 22.905 6.84015 22.905 6.84015C23.2928 7.32894 23.4499 8.00568 23.2481 8.65047L22.8994 9.70515L21.5081 13.938C21.5081 13.938 18.6358 22.696 18.6103 22.757C18.3771 23.329 17.8925 23.7429 17.3344 23.8989C17.3266 23.9014 17.0095 24.0023 16.5337 23.9917L16.3078 23.9823C16.1455 23.9668 15.9697 23.9377 15.7837 23.8858C15.7989 23.8808 16.3617 23.688 16.845 22.3314L21.3094 8.56422C21.3199 8.52258 21.3591 8.39996 21.4481 8.13484L21.4791 8.0364L21.5944 7.67734C22.0306 6.24301 21.7372 5.99744 21.7359 5.99546Z" fill="black"/>
<path d="M6.30094 4.30328C6.30094 4.30328 6.77066 4.15455 7.69031 4.81234C7.91811 4.97603 7.98375 5.02609 7.98375 5.02609L12.39 8.22859L8.08594 11.3177L9.94312 16.9905H15.3037L13.5066 22.5283L13.3444 22.9277C12.9609 23.7877 12.658 23.9402 12.6525 23.943H4.94906L0 8.82953L6.30094 4.30328Z" fill="black"/>
<path d="M66.1331 21.0808C66.1332 21.273 66.1728 21.4393 66.2512 21.5795C66.3298 21.7199 66.4399 21.8269 66.5812 21.9048C66.7227 21.9828 66.8959 22.0192 67.095 22.0192C67.294 22.0192 67.4593 21.9802 67.6059 21.9048C67.7527 21.8268 67.863 21.7199 67.9416 21.5795C68.0201 21.4392 68.0596 21.273 68.0597 21.0808V17.9448H69.2334V21.0808C69.2334 21.494 69.1466 21.8527 68.9737 22.1542C68.8008 22.4558 68.5544 22.687 68.2322 22.8508C67.9099 23.0146 67.5275 23.0983 67.0847 23.0983H67.0772C66.6396 23.0983 66.2617 23.0146 65.9447 22.8508C65.6279 22.687 65.3846 22.4556 65.2144 22.1542C65.0441 21.8527 64.9594 21.4966 64.9594 21.0808V17.9448H66.1331V21.0808Z" fill="black"/>
<path d="M31.5197 17.8586C31.889 17.8586 32.2268 17.9244 32.5359 18.0517C32.8451 18.1791 33.1131 18.3584 33.3384 18.5898C33.5636 18.8212 33.7366 19.0892 33.8597 19.3933L32.7591 19.7627C32.6857 19.5937 32.5886 19.4476 32.4628 19.3202C32.3397 19.1954 32.1981 19.099 32.0409 19.0314C31.8838 18.9639 31.7082 18.9302 31.5197 18.9302C31.2525 18.9302 31.0141 18.9952 30.8072 19.1252C30.5977 19.2551 30.435 19.437 30.3197 19.6708C30.2044 19.9047 30.1444 20.1729 30.1444 20.477C30.1444 20.7812 30.2046 21.0493 30.3225 21.2833C30.4404 21.5172 30.6053 21.6992 30.8175 21.8317C31.0297 21.9643 31.2707 22.0295 31.5431 22.0295C31.7422 22.0295 31.9201 21.9926 32.0747 21.9198C32.2293 21.847 32.3661 21.7461 32.4787 21.6161C32.594 21.4861 32.6912 21.3379 32.775 21.1689L33.8747 21.5383C33.7594 21.8475 33.5869 22.1181 33.3591 22.352C33.1311 22.586 32.8608 22.7677 32.5491 22.8977C32.2374 23.0276 31.897 23.0926 31.5225 23.0927L31.5197 23.0898C31.0142 23.0898 30.5688 22.9786 30.1837 22.7552C29.7986 22.5316 29.4945 22.2215 29.2744 21.8289C29.0543 21.4363 28.9416 20.9837 28.9416 20.4742C28.9416 19.9649 29.0518 19.5129 29.2744 19.1205C29.4945 18.7279 29.7986 18.4178 30.1837 18.1942C30.5688 17.9708 31.0142 17.8586 31.5197 17.8586Z" fill="black"/>
<path fill-rule="evenodd" clip-rule="evenodd" d="M83.4159 17.867C83.9346 17.8671 84.3961 17.9791 84.7969 18.2027C85.1975 18.4262 85.5121 18.7355 85.74 19.128C85.9679 19.5205 86.0831 19.9732 86.0831 20.4827C86.0831 20.9921 85.9699 21.4364 85.7447 21.8289C85.5194 22.2214 85.2082 22.5316 84.81 22.7552C84.4117 22.9788 83.9525 23.0898 83.4337 23.0898H83.4291C82.9052 23.0898 82.4412 22.9786 82.0378 22.7552C81.6343 22.5316 81.3198 22.2215 81.0919 21.8289C80.864 21.4364 80.7488 20.9869 80.7487 20.4827C80.7487 19.9783 80.8639 19.5206 81.0919 19.128C81.3198 18.7354 81.6342 18.4263 82.035 18.2027C82.4359 17.9791 82.8972 17.867 83.4159 17.867ZM83.4187 18.9302C83.1332 18.9302 82.8787 18.9954 82.6612 19.128C82.4438 19.2606 82.2704 19.4424 82.1447 19.6764C82.019 19.9104 81.9562 20.1785 81.9562 20.4827C81.9563 20.7867 82.019 21.0466 82.1447 21.2805C82.2704 21.5145 82.446 21.697 82.6687 21.827C82.8906 21.9565 83.1466 22.0206 83.4309 22.0211C83.7154 22.0208 83.9688 21.9565 84.1856 21.827C84.4031 21.697 84.5734 21.5144 84.6966 21.2805C84.8171 21.0465 84.8803 20.7816 84.8803 20.4827C84.8803 20.1837 84.8176 19.9104 84.6919 19.6764C84.5661 19.4424 84.3928 19.2606 84.1753 19.128C83.958 18.9955 83.7041 18.9302 83.4187 18.9302Z" fill="black"/>
<path d="M35.6569 23.0045L35.6541 23.0017H35.6569V23.0045Z" fill="black"/>
<path fill-rule="evenodd" clip-rule="evenodd" d="M37.6584 17.9448C38.0278 17.9448 38.3554 18.0147 38.6409 18.1577C38.9265 18.3007 39.1516 18.4989 39.3141 18.7511C39.4765 19.0033 39.5578 19.2944 39.5578 19.622C39.5578 19.9495 39.4772 20.241 39.3122 20.4958C39.1471 20.7505 38.9188 20.9507 38.6306 21.0911C38.6231 21.0948 38.6148 21.0968 38.6072 21.1005L39.7622 23.0045H38.4234L37.4503 21.3039H36.8278V23.0017H35.6569V17.9448H37.6584ZM36.8278 20.2352H37.6219C37.758 20.2352 37.8783 20.2091 37.9856 20.1545C38.093 20.1026 38.1776 20.0277 38.2378 19.9342C38.2981 19.8406 38.3297 19.7362 38.3297 19.6192C38.3297 19.4399 38.2635 19.2946 38.13 19.1777C37.9964 19.0607 37.8212 19.0033 37.6012 19.0033H36.8278V20.2352Z" fill="black"/>
<path fill-rule="evenodd" clip-rule="evenodd" d="M48.7519 17.9448C49.2916 17.9448 49.7685 18.0544 50.1825 18.2702C50.5964 18.4859 50.9215 18.7848 51.1547 19.1617C51.3878 19.5412 51.5034 19.9778 51.5034 20.4742C51.5034 20.9707 51.3877 21.4025 51.1547 21.782C50.9215 22.1616 50.5964 22.4608 50.1825 22.6792C49.7685 22.895 49.289 23.0045 48.7519 23.0045H47.0831V17.9448H48.7519ZM48.2569 21.9048H48.7519C48.9746 21.9048 49.182 21.871 49.3706 21.8008C49.5591 21.7306 49.7242 21.6318 49.8656 21.5045C50.0071 21.3771 50.1142 21.2231 50.1928 21.0489C50.2714 20.8722 50.3109 20.6821 50.3109 20.4742C50.3109 20.2665 50.2713 20.0771 50.1928 19.9005C50.1142 19.7237 50.0071 19.5722 49.8656 19.4448C49.7242 19.3175 49.5591 19.2188 49.3706 19.1486C49.182 19.0784 48.9746 19.0445 48.7519 19.0445H48.2569V21.9048Z" fill="black"/>
<path d="M54.5006 23.0045H53.3269V17.9448H54.5006V23.0045Z" fill="black"/>
<path d="M60.2672 19.0136H58.7812V23.0045H57.6159V19.0136H56.13V17.9448H60.2672V19.0136Z" fill="black"/>
<path d="M74.7403 21.0311V17.9448H75.9141V23.0045H74.7403L72.4453 19.832V23.0045H71.2744V17.9448H72.5053L74.7403 21.0311Z" fill="black"/>
<path d="M79.0819 23.0045H77.9081V17.9448H79.0819V23.0045Z" fill="black"/>
<path d="M91.1869 21.0311V17.9448H92.3606V23.0045H91.1869L88.8919 19.832V23.0045H87.7209V17.9448H88.9519L91.1869 21.0311Z" fill="black"/>
<path d="M44.9419 19.0136H42.7941V19.9389H44.5941V20.9711H42.7941V21.933H44.9794V23.0017H41.6203V17.9448H44.9419V19.0136Z" fill="black"/>
<path d="M47.5228 6.12765H42.81V8.15828H46.7578V10.4261H42.81V12.5345H47.6044V14.882H40.2337V3.78015H47.5228V6.12765Z" fill="black"/>
<path d="M58.0397 10.5536V3.78015H60.6131V14.882H58.0397L53.0072 7.91921V14.882H50.4319V3.78015H53.1328L58.0397 10.5536Z" fill="black"/>
<path d="M71.19 6.12765H66.3487V8.26797H70.2656V10.5995H66.3487V14.882H63.7753V3.78015H71.19V6.12765Z" fill="black"/>
<path d="M80.9419 6.12765H76.2262V8.15828H80.175V10.4261H76.2262V12.5345H81.0206V14.882H73.6528V3.78015H80.9419V6.12765Z" fill="black"/>
<path fill-rule="evenodd" clip-rule="evenodd" d="M87.5269 3.78015C88.7084 3.78019 89.7567 4.01971 90.6684 4.49546C91.58 4.97124 92.2904 5.6237 92.8012 6.45296C93.3121 7.28229 93.5681 8.24181 93.5681 9.33109C93.5681 10.4204 93.3121 11.3671 92.8012 12.2017C92.2904 13.0362 91.5774 13.6909 90.6684 14.1667C89.7593 14.6425 88.711 14.882 87.5269 14.882H83.8659V3.78015H87.5269ZM86.4394 12.4717H87.5269C88.0166 12.4717 88.4696 12.3963 88.8834 12.243C89.3 12.0896 89.6618 11.874 89.9709 11.5933C90.2801 11.3125 90.5189 10.9796 90.6919 10.5948C90.8622 10.2101 90.9487 9.78884 90.9487 9.3339C90.9487 8.879 90.8621 8.4603 90.6919 8.07297C90.5216 7.68817 90.2801 7.35532 89.9709 7.07453C89.6618 6.79375 89.3 6.57823 88.8834 6.42484C88.467 6.27151 88.0166 6.19612 87.5269 6.19609H86.4394V12.4717Z" fill="black"/>
<path fill-rule="evenodd" clip-rule="evenodd" d="M33.7912 3.78015C34.6009 3.78015 35.3189 3.94151 35.9503 4.2639C36.5791 4.58629 37.0715 5.03099 37.4278 5.59515C37.7841 6.16194 37.9622 6.81982 37.9622 7.56859C37.9622 8.31725 37.7895 8.95158 37.4437 9.52609C37.0979 10.1033 36.6155 10.556 35.9972 10.8836C35.379 11.2111 34.6717 11.3748 33.8728 11.3748H31.9706V14.8792H29.3972V3.78015H33.7912ZM31.9706 9.02922H33.8072C34.2654 9.02917 34.632 8.89438 34.9097 8.62422C35.1874 8.35386 35.3268 8.0027 35.3269 7.56859C35.3269 7.1344 35.1797 6.78336 34.8862 6.51296C34.5928 6.2426 34.2079 6.10704 33.7284 6.10703H31.9706V9.02922Z" fill="black"/>
<path d="M7.425 3.39296C8.2188 2.80284 9.10199 2.75328 9.86437 3.28609L18.4191 9.4689L17.8247 11.2942L8.4525 4.56578C7.30752 3.80919 6.86156 3.88984 6.86156 3.88984C6.99776 3.74689 7.19454 3.56191 7.425 3.39296Z" fill="black"/>
<path d="M10.0922 1.56296C10.6843 1.34977 11.3819 1.41391 11.94 1.8039L19.2103 7.04546H19.2075L18.6131 8.87359L10.6612 3.17734C9.42373 2.32284 8.83296 2.50018 8.81437 2.50609C9.38737 1.79426 10.072 1.56947 10.0922 1.56296Z" fill="black"/>
<path d="M12.0966 0.122024C12.6861 -0.0937723 13.3863 -0.028907 13.9444 0.361087L19.6556 4.47484V4.47671C19.708 4.54431 19.8888 4.89557 19.4906 6.18765L19.3781 6.53359L13.2628 2.16015L13.2684 2.16859C13.2684 2.16859 13.1684 2.09517 12.8278 1.85078C11.4612 0.868565 10.7876 1.07296 10.7766 1.0764C11.3408 0.420579 12.0612 0.131454 12.0966 0.122024Z" fill="black"/>
<path fill-rule="evenodd" clip-rule="evenodd" d="M95.0175 4.76546C95.1328 4.76287 95.2273 4.79422 95.3006 4.85921C95.3739 4.9242 95.4103 5.01025 95.4103 5.11421C95.4103 5.18175 95.3918 5.24435 95.3578 5.2989C95.3212 5.35327 95.2744 5.39505 95.2144 5.42359L95.4553 5.8239H95.1825L94.9781 5.46765H94.8394V5.8239H94.5984V4.76546H95.0175ZM94.8366 5.24921H95.01C95.0544 5.24914 95.0907 5.23576 95.1169 5.20984C95.1456 5.1839 95.159 5.15308 95.1591 5.11421C95.1591 5.07521 95.1429 5.04365 95.1141 5.01765C95.0853 4.99183 95.046 4.97921 95.0016 4.97921H94.8366V5.24921Z" fill="black"/>
<path fill-rule="evenodd" clip-rule="evenodd" d="M94.9856 4.31078C95.1271 4.31078 95.2562 4.33659 95.3794 4.38859C95.5023 4.44054 95.6095 4.51338 95.7037 4.60421C95.7954 4.69517 95.8689 4.80459 95.9212 4.92671C95.9736 5.04891 96 5.18194 96 5.32234C96 5.46251 95.9735 5.5896 95.9212 5.71421C95.8689 5.83638 95.7954 5.94313 95.7037 6.03671C95.6095 6.12768 95.5025 6.20128 95.3794 6.25328C95.2562 6.30528 95.1245 6.33109 94.9856 6.33109C94.8445 6.33104 94.711 6.3051 94.5881 6.25328C94.465 6.20128 94.3571 6.12771 94.2628 6.03671C94.1686 5.94575 94.0977 5.83633 94.0453 5.71421C93.9931 5.59222 93.9666 5.46247 93.9666 5.32234C93.9666 5.18194 93.9929 5.04891 94.0453 4.92671C94.0977 4.80455 94.1711 4.69779 94.2628 4.60421C94.3545 4.51326 94.465 4.44057 94.5881 4.38859C94.7111 4.33673 94.8444 4.31083 94.9856 4.31078ZM94.9856 4.54984C94.8339 4.5499 94.6977 4.58339 94.5825 4.64828C94.4672 4.71328 94.378 4.80482 94.3125 4.91921C94.2471 5.03357 94.2159 5.16903 94.2159 5.32234C94.216 5.47561 94.247 5.60573 94.3125 5.72265C94.378 5.83957 94.4673 5.93027 94.5825 5.99265C94.6977 6.05759 94.8312 6.08916 94.9856 6.08921C95.1376 6.08921 95.2716 6.05765 95.3869 5.99265C95.5021 5.92768 95.5914 5.83957 95.6569 5.72265C95.7223 5.60573 95.7534 5.47302 95.7534 5.32234C95.7534 5.17161 95.7223 5.03099 95.6569 4.91921C95.5914 4.80742 95.5022 4.71588 95.3869 4.64828C95.2716 4.58075 95.1375 4.54984 94.9856 4.54984Z" fill="black"/>
</g>
</svg>
