<svg width="96" height="24" overflow="visible" style="display: block;" viewBox="0 0 96 24" fill="none" xmlns="http://www.w3.org/2000/svg">
<g id="vector">
<path d="M1.44513 2.29242C1.44513 1.90822 1.38175 1.62647 1.15991 1.40235L0.221841 0.480256C0.158458 0.384205 0 0.288154 0 0.192102C0 0.0960512 0.0633831 0 0.190149 0H5.12769C5.25446 0 5.31784 0.0960512 5.31784 0.192102C5.31784 0.288154 5.15938 0.384205 5.096 0.480256L4.15159 1.40235C3.92975 1.62647 3.86637 1.90822 3.86637 2.29242V22.2519H5.12769C5.50799 22.2519 5.81857 22.1558 5.94533 21.778L7.89753 15.6115C7.96091 15.4835 7.96091 15.3874 8.08768 15.3874C8.18275 15.3874 8.24614 15.4835 8.24614 15.6115V23.3981C8.24614 23.6862 8.15106 23.8399 7.89753 23.8399H0.190149C0.0633831 23.8399 0 23.7439 0 23.6478C0 23.5518 0.158458 23.4877 0.221841 23.3597L1.16625 22.4376C1.38809 22.2134 1.45147 21.9317 1.45147 21.5475V2.29242H1.44513Z" fill="black"/>
<path d="M9.71662 7.53042C9.71662 7.24226 9.66592 6.99893 9.52647 6.85806L8.79123 6.16009C8.72151 6.08965 8.6708 6.01921 8.6708 5.94237C8.6708 5.86553 8.72151 5.79509 8.81025 5.79509H12.4548C12.5498 5.79509 12.6006 5.86553 12.6006 5.94237C12.6006 6.01921 12.5498 6.08965 12.4801 6.16009L11.7449 6.85806C11.6245 7.00534 11.5547 7.24226 11.5547 7.53042V20.619C11.5547 21.6756 11.6498 22.6425 12.7717 22.6425C13.6527 22.6425 13.8936 21.682 13.8936 20.619V7.53042C13.8936 7.24226 13.8429 6.99893 13.7034 6.85806L12.9682 6.16009C12.8985 6.08965 12.8477 6.01921 12.8477 5.94237C12.8477 5.86553 12.8985 5.79509 12.9935 5.79509H16.2578C16.3528 5.79509 16.4035 5.86553 16.4035 5.94237C16.4035 6.01921 16.3528 6.08965 16.2831 6.16009L15.5479 6.85806C15.4274 7.00534 15.3577 7.24226 15.3577 7.53042V21.2401C15.3577 22.7321 14.2168 23.8399 12.5942 23.8399C10.7117 23.8399 9.73564 22.7321 9.73564 21.2401V7.53042H9.71662Z" fill="black"/>
<path d="M19.6931 22.111C19.6931 22.3991 19.7438 22.6169 19.9086 22.7834L20.6249 23.4813C20.6756 23.5518 20.7896 23.6286 20.7896 23.699C20.7896 23.7695 20.7453 23.8463 20.6439 23.8463H16.9043C16.8092 23.8463 16.7648 23.7759 16.7648 23.699C16.7648 23.6222 16.8852 23.5518 16.9296 23.4813L17.6458 22.7834C17.8106 22.6169 17.8613 22.3991 17.8613 22.111V7.53042C17.8613 7.24226 17.8106 7.02455 17.6458 6.85806L16.9296 6.16009C16.8789 6.08965 16.7648 6.01921 16.7648 5.94237C16.7648 5.86553 16.8155 5.79509 16.9043 5.79509H19.8833C22.3615 5.79509 23.6482 7.1206 23.6482 10.2455C23.6482 12.9157 22.7228 13.9979 21.8862 14.5293C22.6975 14.9648 23.4074 15.8997 23.4074 17.2252V22.2519C23.4074 22.4184 23.5024 22.5656 23.6229 22.6873L24.3835 23.5069C24.4785 23.603 24.5736 23.699 24.5736 23.7695C24.5736 23.8399 24.4532 23.8399 24.3328 23.8399H23.0968C22.0003 23.8399 21.5756 23.1163 21.5756 22.3031V17.1291C21.5756 16.0726 20.9354 15.2785 20.0988 15.2785H19.6931V22.111ZM19.6931 14.0747H20.0481C21.2143 14.0747 21.6897 13.1398 21.6897 10.2519C21.6897 7.79936 21.2143 7.00534 20.0481 7.00534H19.6931V14.0747Z" fill="black"/>
<path d="M29.2703 19.825C29.2449 19.7033 29.1752 19.6073 29.0548 19.6073H27.2927C27.223 19.6073 27.1723 19.6777 27.1533 19.7737L26.7984 22.4184C26.773 22.5848 26.8237 22.7321 26.9188 22.8538L27.4449 23.4045C27.5399 23.5261 27.6857 23.6222 27.6857 23.6926C27.6857 23.7631 27.635 23.8399 27.5209 23.8399H24.7828C24.6877 23.8399 24.637 23.7695 24.637 23.6926C24.637 23.6158 24.7321 23.5261 24.8018 23.4493L25.4673 22.777C25.6068 22.6361 25.6321 22.3927 25.6575 22.175L27.8252 6.0064C27.8505 5.88474 27.8949 5.78869 28.0153 5.78869H28.8963C29.0168 5.78869 29.0865 5.91035 29.1118 6.05123L31.3746 22.1942C31.4 22.4376 31.4697 22.7001 31.6345 22.841L32.3254 23.4685C32.3951 23.539 32.4711 23.6158 32.4711 23.6862C32.4711 23.7567 32.4204 23.8335 32.3063 23.8335H28.8773C28.7569 23.8335 28.7125 23.7631 28.7125 23.6862C28.7125 23.6094 28.8076 23.539 28.8773 23.4685L29.5175 22.8218C29.6126 22.7257 29.6633 22.5592 29.6379 22.3415L29.283 19.8186L29.2703 19.825ZM28.9344 18.333C29.0041 18.333 29.0548 18.2625 29.0294 18.1665L28.1991 12.2753H28.1548L27.3688 18.1921C27.3435 18.2882 27.3942 18.3394 27.4385 18.3394H28.9407L28.9344 18.333Z" fill="black"/>
<path d="M34.1952 16.3607L32.4331 7.53042C32.4078 7.33831 32.3127 7.14621 32.1732 6.97972L31.5077 6.16009C31.4634 6.08965 31.3619 5.9936 31.3619 5.89755C31.3619 5.82711 31.4317 5.80149 31.5267 5.80149H34.9304C35.0508 5.80149 35.1206 5.82711 35.1206 5.92316C35.1206 5.9936 35.0508 6.08965 34.9558 6.16649L34.2205 6.86446C34.1254 6.96051 34.1001 7.127 34.1508 7.3191L35.222 12.6339H35.2663L36.3882 7.3191C36.4326 7.127 36.4136 6.96051 36.2931 6.86446L35.5325 6.16649C35.4375 6.09605 35.3678 6 35.3678 5.92316C35.3678 5.82711 35.4628 5.80149 35.5833 5.80149H38.7271C38.8475 5.80149 38.9172 5.82711 38.9172 5.89755C38.9172 5.9936 38.8475 6.06403 38.7524 6.16009L37.9665 6.97972C37.846 7.127 37.7763 7.3191 37.7256 7.53042L36.0333 15.6115V22.1046C36.0333 22.3927 36.084 22.6105 36.2488 22.777L36.965 23.4749C37.0094 23.5454 37.1298 23.6222 37.1298 23.6926C37.1298 23.7631 37.0791 23.8399 36.984 23.8399H33.2444C33.1493 23.8399 33.0986 23.7695 33.0986 23.6926C33.0986 23.6158 33.2191 23.5454 33.2634 23.4749L33.9797 22.777C34.1445 22.6105 34.1952 22.3927 34.1952 22.1046V16.3543V16.3607Z" fill="black"/>
<path d="M51.6128 8.27321C51.6128 8.4333 51.5494 8.56137 51.4227 8.56137C51.2642 8.56137 51.2008 8.40128 51.1692 8.20918C50.7889 5.53895 49.8825 1.75454 48.2725 1.75454C46.8908 1.75454 46.6373 4.77054 46.6373 11.4813C46.6373 21.016 47.3281 22.412 48.7479 22.412C50.4783 22.412 51.1375 16.5656 51.1375 16.2775C51.1375 16.1174 51.2325 16.0213 51.391 16.0213C51.5494 16.0213 51.6128 16.1174 51.6128 16.3095C51.6128 21.016 50.922 24 48.1521 24C44.4696 24 44.0639 16.7513 44.0639 11.4429C44.0639 7.53682 44.2224 0.160085 48.1521 0.160085C48.6528 0.160085 49.1916 0.448239 49.6606 0.826041C49.8508 0.986126 50.0409 1.01814 50.1931 1.01814C50.3452 1.01814 50.5733 0.890075 50.7888 0.633938C50.979 0.409819 51.2262 0.160085 51.3847 0.160085C51.5748 0.160085 51.6065 0.384205 51.6065 0.697972V8.26041L51.6128 8.27321Z" fill="black"/>
<path d="M56.6835 19.825C56.6581 19.7033 56.5884 19.6073 56.468 19.6073H54.7059C54.6362 19.6073 54.5855 19.6777 54.5601 19.7737L54.2052 22.4184C54.1798 22.5848 54.2306 22.7321 54.3256 22.8538L54.8517 23.4045C54.9468 23.5261 55.0926 23.6222 55.0926 23.6926C55.0926 23.7631 55.0482 23.8399 54.9278 23.8399H52.1896C52.0945 23.8399 52.0502 23.7695 52.0502 23.6926C52.0502 23.6158 52.1452 23.5261 52.215 23.4493L52.8805 22.777C53.0263 22.6361 53.0453 22.3927 53.0706 22.175L55.2383 6.0064C55.2637 5.88474 55.3081 5.78869 55.4285 5.78869H56.3095C56.4299 5.78869 56.4997 5.91035 56.525 6.05123L58.7878 22.1942C58.8131 22.4376 58.8829 22.7001 59.0477 22.841L59.7385 23.4685C59.8083 23.539 59.8843 23.6158 59.8843 23.6862C59.8843 23.7567 59.84 23.8335 59.7195 23.8335H56.2905C56.1701 23.8335 56.1257 23.7631 56.1257 23.6862C56.1257 23.6094 56.2208 23.539 56.2905 23.4685L56.9307 22.8218C57.0257 22.7257 57.0765 22.5592 57.0511 22.3415L56.6962 19.8186L56.6835 19.825ZM56.3475 18.333C56.4173 18.333 56.468 18.2625 56.4426 18.1665L55.6123 12.2753H55.5616L54.7756 18.1921C54.7503 18.2882 54.801 18.3394 54.8454 18.3394H56.3475V18.333Z" fill="black"/>
<path d="M59.2758 7.60726C59.2315 7.34472 59.1554 7.15262 58.9906 6.97972L58.2047 6.1857C58.1096 6.08965 58.0589 5.9936 58.0589 5.89755C58.0589 5.82711 58.1286 5.80149 58.2744 5.80149H61.9633C62.033 5.80149 62.1091 5.82711 62.1091 5.89755C62.1091 5.9936 62.0584 6.08965 61.9886 6.16009L61.3675 6.73639C61.1773 6.90288 61.0569 7.17183 61.0823 7.38314L62.2992 15.8292H62.3499L63.3514 7.38314C63.3767 7.16542 63.2563 6.9285 63.0662 6.73639L62.4957 6.16009C62.426 6.08965 62.3563 5.9936 62.3563 5.89755C62.3563 5.82711 62.4513 5.80149 62.5211 5.80149H65.7092C65.855 5.80149 65.9247 5.82711 65.9247 5.89755C65.9247 5.9936 65.874 6.08965 65.7789 6.1857L64.993 6.97972C64.8282 7.14621 64.7331 7.33831 64.7078 7.60726L62.8253 23.5838C62.7999 23.7503 62.7302 23.8463 62.5844 23.8463H61.7478C61.6274 23.8463 61.583 23.7759 61.5576 23.6542L59.2695 7.60726H59.2758Z" fill="black"/>
<path d="M69.7594 14.0491C69.8798 14.0491 69.9749 14.0043 70.0193 13.8826L70.8496 12.1985C70.9003 12.1025 70.9193 12.0512 70.9954 12.0512C71.0714 12.0512 71.0904 12.1025 71.0904 12.1985V17.2956C71.0904 17.3661 71.0651 17.4173 70.9954 17.4173C70.9003 17.4173 70.8749 17.3469 70.8306 17.2508L70.0193 15.4963C69.9686 15.3746 69.8735 15.3298 69.7594 15.3298H69.2333V22.6425H70.5897C70.9003 22.6425 71.1348 22.4952 71.2299 22.207L72.5166 17.5902C72.5419 17.4941 72.6116 17.4429 72.6814 17.4429C72.7511 17.4429 72.8018 17.5133 72.8018 17.5902V23.6286C72.8018 23.7503 72.7321 23.8463 72.6116 23.8463H66.4445C66.3494 23.8463 66.2987 23.7759 66.2987 23.699C66.2987 23.6222 66.4191 23.5774 66.4635 23.4813L67.1797 22.7834C67.3445 22.6169 67.3952 22.3991 67.3952 22.111V7.53042C67.3952 7.24226 67.3445 7.02455 67.1797 6.85806L66.4635 6.16009C66.4191 6.08965 66.2987 6.01921 66.2987 5.94237C66.2987 5.86553 66.3431 5.79509 66.4445 5.79509H72.6116C72.7067 5.79509 72.8018 5.89114 72.8018 6.01281V12C72.8018 12.0961 72.7574 12.1409 72.6814 12.1409C72.5863 12.1409 72.5166 12.0704 72.4912 11.9744L71.2045 7.45358C71.1095 7.13981 70.894 6.99893 70.5834 6.99893H69.227V14.0491H69.7594Z" fill="black"/>
<path d="M76.5858 22.111C76.5858 22.3991 76.6365 22.6169 76.8013 22.7834L77.5175 23.4813C77.5619 23.5518 77.6823 23.6286 77.6823 23.699C77.6823 23.7695 77.6379 23.8463 77.5365 23.8463H73.7969C73.7018 23.8463 73.6511 23.7759 73.6511 23.699C73.6511 23.6222 73.7716 23.5518 73.8159 23.4813L74.5321 22.7834C74.6969 22.6169 74.7477 22.3991 74.7477 22.111V7.53042C74.7477 7.24226 74.6969 7.02455 74.5321 6.85806L73.8159 6.16009C73.7716 6.08965 73.6511 6.01921 73.6511 5.94237C73.6511 5.86553 73.6955 5.79509 73.7969 5.79509H76.7759C79.2542 5.79509 80.5409 7.1206 80.5409 10.2455C80.5409 12.9157 79.6155 13.9979 78.7788 14.5293C79.5901 14.9648 80.3 15.8997 80.3 17.2252V22.2519C80.3 22.4184 80.3951 22.5656 80.5155 22.6873L81.2761 23.5069C81.3712 23.603 81.4663 23.699 81.4663 23.7695C81.4663 23.8399 81.3458 23.8399 81.2254 23.8399H79.9894C78.8929 23.8399 78.4682 23.1163 78.4682 22.3031V17.1291C78.4682 16.0726 77.8281 15.2785 76.9914 15.2785H76.5858V22.111ZM76.5858 14.0747H76.9407C78.107 14.0747 78.5823 13.1398 78.5823 10.2519C78.5823 7.79936 78.107 7.00534 76.9407 7.00534H76.5858V14.0747Z" fill="black"/>
<path d="M82.7339 7.53042C82.7339 7.24226 82.6642 7.05016 82.5184 6.85806L81.9226 6.16009C81.8782 6.08965 81.7578 6.01921 81.7578 5.91676C81.7578 5.87193 81.8022 5.79509 81.9036 5.79509H84.7622C84.927 5.79509 85.003 5.96158 85.0474 6.20491L87.2405 16.5464H87.2912V7.52401C87.2912 7.23586 87.2405 7.04376 87.0757 6.87727L86.4101 6.15368C86.3658 6.08324 86.2453 6.01281 86.2453 5.91035C86.2453 5.86553 86.2897 5.78869 86.3848 5.78869H89.5286C89.6237 5.78869 89.6744 5.85913 89.6744 5.91035C89.6744 6.0064 89.5793 6.07684 89.5096 6.15368L88.9138 6.85165C88.768 7.04376 88.6983 7.23586 88.6983 7.52401V23.571C88.6983 23.7375 88.6285 23.8335 88.4574 23.8335H87.456C87.2405 23.8335 87.0503 23.5902 86.9806 23.2316L84.1917 10.1238H84.141V22.1046C84.141 22.3927 84.2107 22.5848 84.3819 22.7513L85.022 23.4749C85.0918 23.5454 85.1868 23.6222 85.1868 23.7183C85.1868 23.7695 85.1361 23.8399 85.0411 23.8399H81.8973C81.8022 23.8399 81.7515 23.7695 81.7515 23.7183C81.7515 23.6222 81.8719 23.5518 81.9163 23.4749L82.5121 22.777C82.6515 22.5848 82.7276 22.3927 82.7276 22.1046V7.53042H82.7339Z" fill="black"/>
<path d="M95.6134 12.032C95.6134 12.1025 95.569 12.1537 95.4676 12.1537C95.3979 12.1537 95.3471 12.0832 95.3281 11.9872C94.9478 10.0406 93.8069 7.00534 92.7104 7.00534C92.1146 7.00534 92.0702 7.51121 92.0702 8.13874C92.0702 9.31697 92.3808 10.4952 94.1429 14.2732C95.8098 17.8335 96 18.6275 96 20.5294C96 23.0779 94.688 23.8463 93.8069 23.8463C93.1668 23.8463 92.7611 23.5838 92.4759 23.3917C92.216 23.2252 92.0702 23.1483 92.0005 23.1483C91.9054 23.1483 91.7153 23.3148 91.2399 23.6798C91.1448 23.7503 91.0498 23.8463 90.9547 23.8463C90.8596 23.8463 90.8343 23.7951 90.8343 23.7247V17.6606C90.8343 17.5902 90.8596 17.4941 90.9547 17.4941C91.0244 17.4941 91.0751 17.5902 91.1005 17.6606C91.5315 19.588 92.2667 22.6425 93.6738 22.6425C94.1238 22.6425 94.3647 22.1366 94.3647 21.3938C94.3647 19.7802 93.6485 18.0256 92.2921 15.1377C91.0054 12.397 90.53 10.5656 90.53 8.8111C90.53 6.52508 91.5061 5.80149 92.7231 5.80149C93.1731 5.80149 93.6992 6.06403 94.0541 6.35219C94.1746 6.42263 94.314 6.49947 94.4091 6.49947C94.5042 6.49947 94.745 6.33298 94.9542 6.11526C95.1697 5.92316 95.3091 5.80149 95.4549 5.80149C95.5753 5.80149 95.6197 5.92316 95.6197 6.06403V12.032H95.6134Z" fill="black"/>
</g>
</svg>
