<svg preserveAspectRatio="none" width="100%" height="100%" overflow="visible" style="display: block;" viewBox="0 0 40 48.9941" fill="none" xmlns="http://www.w3.org/2000/svg">
<g id="vector">
<path fill-rule="evenodd" clip-rule="evenodd" d="M15.7227 40.998C16.0936 40.9981 16.489 41.0551 16.9062 41.1641C17.3216 41.2717 17.7102 41.4813 18.0596 41.792C18.4102 42.1036 18.7058 42.5291 18.9375 43.0713C19.1688 43.6156 19.2861 44.3195 19.2861 45.1885V45.5469H14.082C14.0894 45.6865 14.1133 45.8643 14.1562 46.0742C14.1906 46.2831 14.2711 46.4898 14.3887 46.6904C14.5066 46.8897 14.6822 47.061 14.916 47.1943C15.1484 47.3317 15.4645 47.4033 15.8643 47.4033C16.1406 47.4033 16.4059 47.3317 16.6562 47.1943C16.9084 47.061 17.0711 46.8517 17.1484 46.5762H19.2021C19.0662 47.0311 18.8799 47.412 18.6416 47.7207C18.3979 48.0281 18.1217 48.2771 17.8184 48.4678C17.5121 48.6573 17.1927 48.7921 16.8555 48.873C16.5201 48.953 16.1893 48.9941 15.8643 48.9941C15.3319 48.9941 14.8344 48.9231 14.373 48.7871C13.913 48.6461 13.5128 48.4184 13.1787 48.0957C12.8387 47.771 12.5743 47.3427 12.377 46.8076C12.1813 46.2756 12.084 45.6205 12.084 44.8389C12.084 44.6876 12.0958 44.4901 12.1182 44.2412C12.1452 43.9899 12.2002 43.7247 12.2871 43.4414C12.3715 43.1537 12.4936 42.8673 12.6543 42.5732C12.8159 42.2841 13.0326 42.0232 13.3057 41.792C13.5757 41.56 13.9081 41.3698 14.2988 41.2178C14.6989 41.0724 15.1669 40.998 15.7227 40.998ZM15.6943 42.6396C15.2201 42.6397 14.8588 42.7828 14.6055 43.0654C14.3553 43.3454 14.2002 43.7397 14.1426 44.2441H17.2373C17.207 43.9409 17.1417 43.6825 17.0361 43.4785C16.9322 43.2733 16.8083 43.1081 16.666 42.9824C16.5237 42.8597 16.3667 42.7721 16.1943 42.7197C16.0247 42.6664 15.8573 42.6396 15.6943 42.6396Z" fill="black"/>
<path fill-rule="evenodd" clip-rule="evenodd" d="M34.0615 40.9971C34.5725 40.9971 35.0646 41.0789 35.5312 41.2422C35.995 41.4029 36.4076 41.6475 36.7637 41.9766C37.1197 42.3019 37.4051 42.7193 37.6201 43.2197C37.8328 43.7168 37.9375 44.3097 37.9375 44.9961C37.9375 45.6825 37.8325 46.2752 37.6201 46.7812C37.4051 47.2846 37.1196 47.7026 36.7637 48.0293C36.4076 48.358 35.995 48.6028 35.5312 48.7568C35.0645 48.9168 34.5772 48.9941 34.0615 48.9941C33.5459 48.9941 33.0601 48.9165 32.5918 48.7568C32.1271 48.6028 31.716 48.358 31.3613 48.0293C31.0023 47.7026 30.7189 47.2846 30.5049 46.7812C30.2935 46.2752 30.1856 45.6825 30.1855 44.9961C30.1855 44.3098 30.2936 43.7168 30.5049 43.2197C30.7189 42.719 31.0023 42.3019 31.3613 41.9766C31.7164 41.6472 32.1271 41.4029 32.5918 41.2422C33.0597 41.079 33.5506 40.9971 34.0615 40.9971ZM34.0615 42.6777C33.6813 42.6778 33.3594 42.7549 33.1191 42.9102C32.8819 43.0608 32.7006 43.2506 32.5693 43.4785C32.4441 43.7098 32.352 43.9603 32.3057 44.2295C32.259 44.5049 32.2354 44.7471 32.2354 44.9961C32.2354 45.2451 32.259 45.5044 32.3057 45.7744C32.352 46.0465 32.444 46.299 32.5693 46.5273C32.7007 46.755 32.8819 46.9438 33.1191 47.0918C33.3594 47.2404 33.673 47.3134 34.0615 47.3135C34.4501 47.3135 34.7531 47.2404 34.9951 47.0918C35.2375 46.9438 35.4225 46.755 35.5498 46.5273C35.6828 46.299 35.7717 46.0464 35.8174 45.7744C35.866 45.5044 35.8887 45.2451 35.8887 44.9961C35.8887 44.7597 35.8661 44.5049 35.8174 44.2295C35.7714 43.9603 35.6827 43.7097 35.5498 43.4785C35.4225 43.2505 35.2375 43.0608 34.9951 42.9102C34.7531 42.7548 34.4419 42.6777 34.0615 42.6777Z" fill="black"/>
<path d="M22.8613 41.2002H24.1025V42.6279H22.8613V46.751C22.8613 46.8647 22.8667 46.9599 22.876 47.0352C22.885 47.1121 22.9158 47.1727 22.9697 47.2227C23.0207 47.268 23.1026 47.3041 23.2168 47.3281C23.3315 47.3511 23.4915 47.3633 23.6875 47.3633C23.7558 47.3633 23.8221 47.3627 23.8848 47.3584C23.954 47.3527 24.024 47.3472 24.1025 47.3389V48.8418C23.9366 48.8545 23.7845 48.8641 23.6299 48.8701C23.4816 48.8741 23.3224 48.8809 23.1592 48.8809H22.9043C22.4764 48.8809 22.1303 48.8388 21.8613 48.7568C21.5944 48.6782 21.3909 48.5667 21.2412 48.4238C21.0909 48.2771 20.9922 48.1105 20.9385 47.9121C20.8878 47.7065 20.8613 47.484 20.8613 47.2363V42.627H19.8369V41.2002H20.8613V39.1514H22.8613V41.2002Z" fill="black"/>
<path d="M8.22559 40.9971C8.59497 40.9971 8.94556 41.0517 9.2666 41.1631C9.58946 41.2707 9.86665 41.4332 10.1006 41.6475C10.3313 41.8642 10.5189 42.1251 10.6543 42.4404C10.7919 42.7537 10.8623 43.1225 10.8623 43.54V48.7891H8.86328V44.1787C8.86328 43.6183 8.75331 43.2259 8.54395 43.0049C8.33026 42.7882 8.07563 42.6777 7.78027 42.6777C7.27893 42.6778 6.92686 42.8281 6.72852 43.1221C6.53236 43.417 6.42972 43.7889 6.42969 44.2344V48.7891H4.43164V44.2227C4.43164 44.0603 4.42516 43.8877 4.41016 43.7061C4.39482 43.5248 4.35453 43.3584 4.28125 43.2041C4.2086 43.0558 4.09266 42.9278 3.92773 42.8281C3.76038 42.7274 3.52906 42.6787 3.23535 42.6787C2.99711 42.6788 2.80332 42.7192 2.64648 42.793C2.48946 42.8686 2.36254 42.9734 2.26953 43.1084C2.17457 43.241 2.10584 43.3976 2.0625 43.5771C2.01819 43.7604 2.00003 43.9552 2 44.1621V48.79H0V41.2012H1.91406V42.3105H1.93848C2.00449 42.1849 2.09094 42.0452 2.19629 41.8945C2.3032 41.7447 2.43767 41.5993 2.6084 41.4688C2.78001 41.3371 2.98696 41.2232 3.22852 41.1318C3.47286 41.0442 3.76077 40.9971 4.09277 40.9971C4.36714 40.9971 4.60909 41.0268 4.81445 41.0771C5.01723 41.1311 5.20269 41.2012 5.36621 41.3047C5.53357 41.4054 5.68451 41.5316 5.81152 41.6816C5.93986 41.8323 6.07179 42.0096 6.20312 42.209C6.26913 42.113 6.35432 41.9958 6.45898 41.8574C6.56331 41.7224 6.6964 41.5902 6.85938 41.4629C7.01929 41.336 7.20845 41.2231 7.43262 41.1318C7.65694 41.0442 7.92329 40.9971 8.22559 40.9971Z" fill="black"/>
<path d="M29.5703 41.0176C29.6345 41.0232 29.6978 41.0281 29.7637 41.0391V43.0615C29.6788 43.0456 29.584 43.0322 29.4795 43.0322H29.1924C28.8027 43.0322 28.4936 43.0912 28.2539 43.2002C28.0183 43.3069 27.8309 43.449 27.6963 43.627C27.5626 43.804 27.4728 43.9969 27.4268 44.2119C27.3788 44.4223 27.3535 44.6367 27.3535 44.8457V48.79H25.3555V41.2158H27.2666V42.5225H27.292C27.3996 42.3339 27.5118 42.1451 27.623 41.9668C27.7384 41.7864 27.8771 41.6235 28.0381 41.4805C28.201 41.3389 28.3874 41.2249 28.6025 41.1396C28.8149 41.0546 29.0748 41.0117 29.3809 41.0117C29.446 41.0117 29.5101 41.0149 29.5703 41.0176Z" fill="black"/>
<path d="M38.1855 40.1758H37.75V41.3818H37.5205V40.1758H37.085V39.9893H38.1855V40.1758Z" fill="black"/>
<path d="M39.2402 41.0469L39.6494 39.9893H40V41.3818H39.7705V40.2197H39.7637L39.3076 41.3818H39.1621L38.7061 40.2197H38.6992V41.3818H38.4697V39.9893H38.8242L39.2402 41.0469Z" fill="black"/>
<path fill-rule="evenodd" clip-rule="evenodd" d="M34.8193 0C35.6459 9.50023e-05 36.4388 0.328261 37.0234 0.913086C37.6082 1.49783 37.9375 2.29139 37.9375 3.11816V34.8193C37.9375 35.6461 37.6082 36.4393 37.0234 37.0244C36.4388 37.6085 35.6462 37.9374 34.8193 37.9375H3.11816C2.29149 37.9375 1.49781 37.6087 0.913086 37.0244C0.328681 36.4397 6.99405e-06 35.6461 0 34.8193V3.11816C0 2.29139 0.328675 1.49816 0.913086 0.913086C1.49783 0.328675 2.29105 0 3.11816 0H34.8193ZM3.11816 3.28516V34.7188H9.35547V13.0762L15.5908 34.7188H22.3467L28.583 13.0762V34.7188H34.8193V3.28516H25.4648L18.9688 25.4434L12.4727 3.28516H3.11816Z" fill="black"/>
</g>
</svg>
