<svg width="47.2492" height="40" overflow="visible" style="display: block;" viewBox="0 0 47.2492 40" fill="none" xmlns="http://www.w3.org/2000/svg">
<g id="vector">
<path d="M10.4123 25.403C10.4123 24.5538 10.1415 23.9015 9.59996 23.4461C9.05842 22.9784 8.28304 22.7568 7.27381 22.7568H3.40919V28.0368H7.27381C8.28304 28.0368 9.05842 27.8153 9.59996 27.3599C10.1415 26.9045 10.4123 26.2522 10.4123 25.403Z" fill="black"/>
<path d="M3.40919 36.96H7.65534C8.67688 36.96 9.47688 36.7139 10.0553 36.2339C10.6338 35.7539 10.9169 35.0646 10.9169 34.1785C10.9169 33.2677 10.6215 32.5662 10.0061 32.0492C9.40304 31.5323 8.59073 31.2862 7.56919 31.2862H3.40919V36.96Z" fill="black"/>
<path d="M24.1969 0.0123075C11.6062 0.0123075 1.18154 8.54154 0 19.3477H7.87692C9.30462 19.3477 10.5354 19.5815 11.5692 20.0369C12.6031 20.5046 13.3908 21.1446 13.92 21.9692C14.4492 22.7938 14.72 23.7292 14.72 24.7754C14.72 26.0062 14.3877 27.0277 13.7354 27.8523C12.7385 29.1692 11.1262 29.6 11.1262 29.6C11.1262 29.6 12.8369 29.8092 14.0554 31.3846C14.8185 32.3446 15.2 33.4523 15.2 34.7077C15.2 35.8277 14.9292 36.8246 14.3754 37.6738C13.8215 38.5231 13.0215 39.2 11.9754 39.68C11.7169 39.8031 11.4338 39.9138 11.1508 40C13.2554 40 15.6062 40 18.1292 40V24.3815H22.3508V39.9877C22.5354 39.9877 22.7323 39.9877 22.9292 39.9877C24.2585 39.9877 25.5631 39.8892 26.8431 39.7046C28.2708 39.4831 28.7508 39.36 28.7508 39.36C28.7508 39.36 28.1108 38.9662 27.6431 38.5231C27.04 37.9692 26.5231 37.3169 26.1046 36.5662C25.3662 35.2615 25.0092 33.7477 25.0092 32.0369C25.0092 30.3262 25.3908 28.8246 26.1415 27.5077C26.8923 26.2031 27.9262 25.1938 29.2308 24.48C30.5354 23.7662 32 23.4092 33.6 23.4092C35.2123 23.4092 36.6646 23.7662 37.9692 24.48C39.2738 25.1938 40.3077 26.2031 41.0585 27.5077C41.5015 28.2831 41.8092 29.12 41.9938 30.0185C42.1292 30.5969 42.1662 31.4215 42.1785 31.5938C42.3877 31.36 43.0031 30.6215 43.3108 30.1908C44.3323 28.8123 45.1692 27.3231 45.8092 25.76C47.0892 23.1631 47.1631 20.0369 47.1631 20.0369C47.2 19.5569 47.2492 0 47.2492 0C47.2492 0 29.8092 0.0123075 24.1969 0.0123075ZM23.04 19.8646C23.04 21.0831 21.9077 22.08 20.5169 22.08C19.9385 22.08 18.1292 22.08 18.1292 22.08C18.1292 22.08 18.1292 20.0492 18.1415 20C18.1415 20 18.1538 19.68 18.2769 19.4092C18.6215 18.5477 19.5569 17.9323 20.6523 17.9323C22.0431 17.9323 23.04 17.9323 23.04 17.9323C23.04 17.9323 23.04 19.5938 23.04 19.8646Z" fill="black"/>
<path d="M35.6306 36.4185C36.3075 36.0493 36.8368 35.4831 37.2429 34.7447C37.6491 34.0062 37.846 33.0954 37.846 32.037C37.846 30.4493 37.4275 29.2308 36.5906 28.3693C35.7537 27.52 34.7322 27.0893 33.526 27.0893C32.3199 27.0893 31.3106 27.52 30.4983 28.3693C29.686 29.2185 29.2799 30.4493 29.2799 32.037C29.2799 33.6247 29.6737 34.8431 30.4737 35.7047C31.2614 36.5539 32.2706 36.9847 33.4768 36.9847C34.2399 36.9724 34.966 36.7877 35.6306 36.4185Z" fill="black"/>
</g>
</svg>
