<svg preserveAspectRatio="none" width="100%" height="100%" overflow="visible" style="display: block;" viewBox="0 0 96 15" fill="none" xmlns="http://www.w3.org/2000/svg">
<g id="vector">
<path d="M11.8095 6.03771H3.90489V0.261308H0V14.6891H3.90489V8.32448H11.8095V14.6891H15.7347V0.261308H11.8095V6.03771Z" fill="black"/>
<path d="M22.9179 0.261308H18.9656V14.6924H22.9179V0.261308Z" fill="black"/>
<path d="M96 0.261308H92.0477V14.6924H96V0.261308Z" fill="black"/>
<path d="M39.7127 0.261308H24.3607V2.66374H30.0978V14.6891H33.9756V2.66374H39.7127V0.261308Z" fill="black"/>
<path d="M43.35 0.28444L36.3395 14.6891H40.7253L42.1003 11.4572H49.4969L50.8482 14.6891H55.2577L48.2946 0.28444H43.35ZM43.0859 9.17376L45.8088 2.73644L48.508 9.17376H43.0859Z" fill="black"/>
<path d="M63.3994 12.8286C61.8822 12.8286 58.7732 12.5213 58.7258 7.52478C58.6783 2.80914 61.5198 2.14822 63.3994 2.14822C65.2554 2.17136 67.1113 3.02063 67.135 5.16531H71.1347C71.0839 2.54808 68.7742 0.0498146 63.3994 0.000245892C59.3997 -0.0228862 54.5567 1.57984 54.533 7.45208C54.5093 13.2747 59.4505 15.0923 63.3994 14.9964C67.0368 14.8775 71.0873 13.8894 71.2566 9.50422L67.2332 9.52735C67.1113 12.2635 64.8726 12.8055 63.4028 12.8286H63.3994Z" fill="black"/>
<path d="M84.9898 6.03771H77.0852V0.261308H73.1837V14.6891H77.0852V8.32448H84.9898V14.6891H88.8913V0.261308H84.9898V6.03771Z" fill="black"/>
</g>
</svg>
