<svg width="64.001" height="26.076" overflow="visible" style="display: block;" viewBox="0 0 64.001 26.076" fill="none" xmlns="http://www.w3.org/2000/svg">
<g id="vector">
<path fill-rule="evenodd" clip-rule="evenodd" d="M52.9977 6.27105C55.7592 7.32587 58.3765 8.64932 60.6876 10.3264C63.376 12.2957 65.4342 15.7762 62.734 18.7846C61.1478 20.4676 58.8604 21.3209 56.731 21.9036C54.2402 22.5022 51.611 22.8676 48.8515 23.0355L50.5542 19.5175C51.2693 19.4681 52.0476 19.4088 52.7587 19.3338C52.8436 19.3219 52.9285 19.3081 53.0135 19.2962C55.7256 18.8913 58.5325 18.4745 60.5513 16.756C62.7261 14.5733 58.1987 11.5036 56.4861 10.352C55.0935 9.48093 53.6535 8.69476 52.1779 7.97969L53.0016 6.27303L52.9977 6.27105ZM48.9206 6.52389C45.3078 5.03451 41.5429 3.8592 37.776 2.755C41.5962 3.23698 45.6732 3.95599 49.5962 5.1234L48.9206 6.52389Z" fill="black"/>
<path fill-rule="evenodd" clip-rule="evenodd" d="M52.0691 0.00197531H56.0198L52.9977 6.27105L43.4489 26.076H39.3185L26.7496 0.00197531H30.7002L41.3847 22.1254L52.0691 0V0.00197531ZM20.721 3.95259L15.4449 14.88C19.6188 16.32 24.5096 17.3116 27.4607 17.9042L20.721 3.95259ZM12.0573 13.6889L18.6568 0.00197531H22.7872L35.3561 26.076H31.4054L29.2622 21.6415L29.2306 21.6356C24.1106 20.7961 18.3427 19.1881 14.1096 17.6395L10.0365 26.0741H6.08198L10.8148 16.2667L9.41827 15.6444C5.29975 13.6553 0.0790123 10.4731 0 6.35852C0.448395 0.886913 9.92988 0.553086 14.0425 0.624198C10.7437 1.13383 7.32642 1.73432 4.35753 3.27506C-2.29136 6.82074 6.2242 11.2474 9.96741 12.8514C10.2104 12.9561 11.5694 13.4973 12.0593 13.6869L12.0573 13.6889Z" fill="black"/>
<path fill-rule="evenodd" clip-rule="evenodd" d="M59.2 1.27392L58.9709 0.572682H58.7496V1.97713H58.9235V1.41614L58.9096 0.849226L59.1486 1.58602H59.2514L59.5101 0.829473L59.4963 1.41614V1.97713H59.6701V0.572682H59.4489L59.202 1.27392H59.2ZM57.9654 0.724781H58.4V0.572682H57.359V0.724781H57.7936V1.97713H57.9674V0.724781H57.9654Z" fill="black"/>
</g>
</svg>
